<?xml version="1.0" encoding="UTF-8"?>
<!-- Generator: Adobe Illustrator 23.0.2, SVG Export Plug-In . SVG Version: 6.00 Build 0)  -->
<svg version="1.1" id="Layer_1" xmlns="http://www.w3.org/2000/svg" xmlns:xlink="http://www.w3.org/1999/xlink" x="0px" y="0px" viewBox="0 0 304.5 273" style="enable-background:new 0 0 304.5 273;" xml:space="preserve">
<style type="text/css">
	.st0{display:none;stroke:#000000;stroke-miterlimit:10;}
	.st1{fill:#FFFFFF;}
	.st2{fill:#363795;}
	.st3{fill:#7292CB;}
	.st4{fill:#B89BC9;}
	.st5{fill:#6FC067;}
	.st6{opacity:0.48;}
	.st7{fill:#33C6F4;}
</style>
<rect x="-10" y="-18" class="st0" width="366" height="341"/>
<g id="Layer_2">
	<polygon class="st1" points="61.8,209.9 58.1,179.8 90.8,163.8 97.2,169.7 93.4,196.5 75.2,208.4  "/>
	<polygon class="st1" points="108.3,164.5 125.1,151.9 129.9,157.4 131,225.9 121,225.9 103.9,207.3 104.6,170.5  "/>
	<polygon class="st1" points="144.1,148.5 160.1,143.7 174.9,145.9 183.5,252 159.7,260.9 142.6,240.4 136.2,172.7  "/>
	<polygon class="st1" points="183.5,147 201,145.2 209.5,157.4 232.6,164.5 248.2,168.2 248.2,202.5 236,221.4 219.6,233.7    208.1,240.1 196.1,261.3 183.5,233.4 177.5,186.5 177.2,155.2  "/>
</g>
<g id="body">
	<path class="st1" d="M107.1,131.9c4.1-8.1,8.5-13,7.7-19.5c-0.9-6.5-5-12.2-9.6-17s-9.9-9.2-13.9-14.5c-11-14.5-10.6-35.9,0.8-50   c9.5-11.6,25.7-17.8,41-15.5c18.8,2.9,33.4,17.1,43.7,32.4v1.4c4.6,7.7,13,23.2,13,23.2v1.1c1.2,1.3,1.6,3.2,1.8,5   c0.7,6.9-1.3,13.9-0.5,20.8c-3.9,14.2,9.6,18.4,16,21.7l-4.5,19.8c0,0-0.9,5.8-14.1,7.3c-7.2,0.8-23.5-4.2-32.5-1.6   c-5,1.5-14.7,7.1-21.4,9.7c-4.6,1.8-9.8-0.2-12.8,1.9c-22,16.3-23.9,13.6-20.1-11.4c2.5-16.2,3.3-16.9,3.3-16.9"/>
</g>
<g id="face">
	<g>
		<path class="st1" d="M150.1,72c2.7,2.5,4.8,6.1,3.9,9.7c-0.4,1.4-1.1,2.7-1.8,4c-1.9,3.1-4.3,5.9-7.4,7.8s-7,2.5-10.4,1.2    c-4.3-1.6-6.9-6.2-7.4-10.7s0.7-9.1,2.2-13.4c0.5-1.3,1-2.6,1.9-3.6c1.4-1.5,2.1-1.7,5.8-2S147.9,70,150.1,72z"/>
		<g>
			<path class="st2" d="M148.7,73.3c3.3,3.3,4.2,7.3,1.8,11.4c-1.6,2.8-3.9,5.5-6.7,7.1c-8.2,4.7-15.3-2.1-15.1-10.4     c0.1-5.4,1.7-15.2,8.7-14.5C141.4,67.4,145.8,70.7,148.7,73.3c1.8,1.6,4.5-1,2.7-2.7c-4.9-4.3-12.5-9.7-19.3-6.7     c-3.6,1.6-4.9,5.9-5.9,9.4c-1.4,5-2,10.4,0,15.3c3.6,8.7,13.5,10.8,20.9,5.4c3.6-2.6,7.1-6.9,8.4-11.2c1.4-4.8-0.8-8.9-4.1-12.2     C149.7,69,147,71.6,148.7,73.3z"/>
		</g>
	</g>
	<g>
		<path class="st1" d="M179.6,74.3c1.6,0,3,0.3,4.4-0.2c4.5-1.5,7.8-5.9,8.3-10.6s-1.6-9.5-5.3-12.6c-3.6-3-10.7-5.6-12.2-4    c-1.6,1.6-7.9,8.1-4.2,20.9C170.6,67.8,172.7,74.3,179.6,74.3z"/>
		<g>
			<path class="st2" d="M179.6,76.2c10,0.4,16.9-9.1,13.9-18.8c-1.4-4.5-4.7-8-8.8-10.2c-2.7-1.5-7.3-3.7-10.4-2.2     c-5.7,2.8-7.2,12.6-6.6,17.9C168.5,70,171.9,75.7,179.6,76.2c2.4,0.1,2.4-3.6,0-3.8c-10.2-0.6-10.6-17-4.7-22.8     c3.5-3.5,11.2,2.2,13.4,5.4c5.1,7.4,0.8,17.7-8.6,17.4C177.2,72.4,177.2,76.1,179.6,76.2z"/>
		</g>
	</g>
	<g>
		<path class="st2" d="M135.1,80.9c-0.2,1-0.1,2.1,0.4,3.1c0.2,0.4,0.4,0.7,0.8,0.9c0.5,0.2,1.1,0.1,1.5-0.3    c0.4-0.3,0.7-0.9,0.9-1.4c0.1-0.4,0.2-0.7,0.2-1.1s-0.1-0.7-0.3-1c-0.3-0.7-0.9-1.4-1.6-1.6c-0.8-0.2-1.7,0.3-1.8,1.1L135.1,80.9z    "/>
		<g>
			<path class="st2" d="M132.7,80.2c-0.4,2.4,0,5.5,2.4,6.8c2.8,1.5,5.6-1,6.2-3.7c0.5-2.5-0.9-5.5-3.5-6.3     C135.4,76.3,133.2,77.8,132.7,80.2c-0.3,1.3,0.4,2.7,1.7,3.1c1.2,0.3,2.8-0.4,3.1-1.7c0-0.1,0-0.4,0.1-0.4     c-0.2,0.3-0.4,0.6-0.7,0.7c-0.2,0-0.4,0-0.5,0c0,0-0.2,0-0.1-0.1c-0.1,0.2,0.2,0.2,0.2,0.4c0,0.3-0.2,0.4-0.2,0.5     c-0.2,0.3-0.1,0.2,0.4-0.2c1.1,0.7,1.5,0.9,1.1,0.4c0-0.4-0.3-0.8-0.3-1.3c0.2-1.3-0.3-2.7-1.7-3.1     C134.6,78.1,132.9,78.9,132.7,80.2z"/>
		</g>
	</g>
	<g>
		<path class="st2" d="M177.2,62.4c-0.1,0.7-0.1,1.5,0.3,2.2c0.3,0.7,1.1,1.2,1.8,1.1s1.2-0.8,1.3-1.5c0.1-0.7-0.1-1.4-0.5-2.1    c-0.3-0.5-0.7-1-1.2-1.1s-1.4,0.4-1.4,0.4L177.2,62.4z"/>
		<g>
			<path class="st2" d="M174.9,62.4c-0.2,2.4,0.9,5,3.4,5.4c2.7,0.5,4.8-2,4.5-4.6c-0.3-2.3-2.1-4.9-4.7-4.5     c-0.9,0.1-2.1,0.6-2.6,1.5c-0.3,0.5-0.4,1-0.6,1.5c-0.4,1.2,0.4,2.5,1.6,2.8c1.2,0.3,2.4-0.4,2.8-1.6c0.1-0.3,0.2-0.7,0.3-1     c-0.3,0.5-0.7,0.9-1,1.4c0.1,0,0.2-0.2,0.3-0.2c-0.1,0-1,0-1-0.2c0-0.1,0.5,0.9,0.4,0.8c-0.3-0.2,1.7-0.5,1-0.4     c0.4-0.1,0,0.8,0.1-0.1c0-0.3,0-0.7,0-1c0.1-1.2-1.1-2.3-2.3-2.3C175.8,60.1,175,61.1,174.9,62.4z"/>
		</g>
	</g>
	<g>
		<g>
			<path class="st2" d="M123.5,64.4c0.7-4.4,3.9-9.7,9.1-8.8c3.1,0.6,4.5-4.2,1.3-4.8c-7.8-1.5-14,4.9-15.2,12.3     C118.2,66.2,123,67.6,123.5,64.4L123.5,64.4z"/>
		</g>
	</g>
	<g>
		<g>
			<path class="st2" d="M159.2,94.6c6.5,3.8,13.3-0.5,15.9-6.7c1.2-3-3.6-4.3-4.8-1.3c-1.4,3.3-5.2,5.7-8.6,3.7     C158.9,88.6,156.4,92.9,159.2,94.6L159.2,94.6z"/>
		</g>
	</g>
	<g>
		<g>
			<path class="st2" d="M166.1,42.5c2.9-3.1,7.7-2.7,10.4,0.5c2,2.5,5.6-1.1,3.5-3.5c-4.3-5.3-12.8-5.4-17.4-0.5     C160.3,41.3,163.9,44.9,166.1,42.5L166.1,42.5z"/>
		</g>
	</g>
	<g>
		<g>
			<path class="st3" d="M179,81.6c1.1,0,1.1-1.8,0-1.8C177.9,79.8,177.9,81.6,179,81.6L179,81.6z"/>
		</g>
	</g>
	<g>
		<g>
			<path class="st3" d="M182.2,80.2c1.1,0,1.1-1.8,0-1.8C181.1,78.5,181.1,80.2,182.2,80.2L182.2,80.2z"/>
		</g>
	</g>
	<g>
		<g>
			<path class="st3" d="M185,81.2c1.1,0,1.1-1.8,0-1.8C183.9,79.5,183.9,81.2,185,81.2L185,81.2z"/>
		</g>
	</g>
	<g>
		<g>
			<path class="st3" d="M137.5,103c1.6,0,1.6-2.5,0-2.5S135.9,103,137.5,103L137.5,103z"/>
		</g>
	</g>
	<g>
		<g>
			<path class="st3" d="M147,100.6c1.6,0,1.6-2.5,0-2.5S145.4,100.6,147,100.6L147,100.6z"/>
		</g>
	</g>
	<g>
		<g>
			<path class="st3" d="M141.8,102.9c1.6,0,1.6-2.5,0-2.5C140.1,100.4,140.1,102.9,141.8,102.9L141.8,102.9z"/>
		</g>
	</g>
</g>
<g id="head">
	<g>
		<g>
			<path class="st2" d="M107,132.8c2.9-5.4,7.3-11,7.9-17.2c0.6-6.1-2.5-12-6-16.7c-8.7-11.5-21.1-18.6-24.6-33.5     c-7-30.5,23.4-55.3,52.4-46.8c15.7,4.6,27.7,17.1,36.7,30.2c1.4,2,4.6,0.1,3.2-1.9c-15.8-23.1-41.8-42.3-70.6-30     C81,27.6,71.1,59.8,88,82c5.7,7.5,13.8,12.9,19.1,20.8c2.8,4.2,5,9.3,3.7,14.4c-1.3,4.9-4.7,9.3-7.1,13.8     C102.6,133,105.8,134.9,107,132.8L107,132.8z"/>
		</g>
	</g>
	<g>
		<g>
			<path class="st2" d="M186.4,74.4c2.9,4.1,1.8,10.6,1.4,15.4c-0.3,4.3-0.7,8.5-0.1,12.8c0.9,6.7,4,12.7,9.9,16.1     c2.1,1.2,4-2,1.9-3.2c-7.8-4.5-8.7-13.7-8.3-21.9c0.4-6.5,2.5-15.3-1.7-21.1C188.2,70.6,185,72.4,186.4,74.4L186.4,74.4z"/>
		</g>
	</g>
</g>
<g id="legs">
	<g>
		<path class="st4" d="M233.9,168.9c2.5-1.2,5.6-0.3,7.6,1.6c2,1.9,3.1,4.6,3.9,7.2c2.5,8.9,1.5,18.6-2,27.2    c-3.5,8.6-9.4,16-16.4,22c-5.9,5-18.3,10.3-19.3,13c0.6,4.1,12.6,1.3,18.4-0.8c2.8-1,5.5-2.5,8-4.1c11.9-7.7,21.2-19.5,25.2-33.1    c4-13.6,2.4-28.9-4.8-41.1c-1.8-3.1-4.5-6.2-8-6.3c-2.4-0.1-4.7,1.3-6.6,2.8c-3.2,2.5-6,5.7-8.2,9.1c0.6,1,1.5,1.8,2.6,2.2"/>
		<g>
			<path class="st2" d="M234.4,170.7c7.6-2.6,9.9,8.6,10.4,13.8c0.5,5.6-0.2,11.3-1.9,16.6c-3.1,9.8-9.8,18.7-17.9,25     c-5.4,4.2-12.6,6.4-17.5,11.1c-3.1,3-0.5,5.9,3.1,6.5c5.8,0.8,12.9-1.4,18.2-3.7c8.3-3.6,15.7-9.9,21.4-16.9     c10.8-13.3,15.6-30.8,12.1-47.7c-1.5-7.3-5.1-19-12.7-22.2c-8-3.3-15.6,6.4-19.4,12.2c-0.3,0.5-0.4,1.4,0,1.9     c1,1.3,1.8,2.1,3.2,2.8c2.1,1.1,4-2.1,1.9-3.2c-2.3-1.2,0.8-3.5,2-4.7c1.4-1.5,3-3.2,4.8-4.2c6.3-3.7,9.9,1.5,12.5,6.6     c4,8,5.7,17.1,5,26c-1.2,16.7-10.8,31.9-24.4,41.5c-6.1,4.3-13.3,7.3-20.7,8c-1.2,0.1-2.7,0.3-3.9,0c-0.6-0.1-1.2,1.3-0.4,0     c0.2-0.4,1-0.7,1.4-1c2.7-1.9,5.7-3.4,8.5-5c12.2-7.2,22.1-18.1,26.5-31.7c2.7-8.3,3.2-17.9,0.4-26.2c-1.9-5.8-6.8-11-13.4-8.8     C231.2,167.9,232.1,171.5,234.4,170.7L234.4,170.7z"/>
		</g>
	</g>
	<g>
		<path class="st4" d="M96,202.8c3.4-39.4,11-8.8,13.2-1.8c-0.1,2,0.6,3.9,1.3,5.8c2.3,6.4,5,13.2,10.4,17.3    c0.4,0.3,0.9,0.7,0.9,1.2c0,0.8-0.9,1.2-1.7,1.3c-3.2,0.5-6.5-0.5-9.3-2.1s-9.5-8.8-11.3-10.6C94.9,205.8,96,202.8,96,202.8z"/>
		<g>
			<path class="st2" d="M97.9,202.8c0.5-5.5,1-11.1,2.7-16.4c0.1-0.3,0.4-1.4,0.8-1.5c-0.1,0-0.7,0.1-0.4,0.2     c0.6,0.3,1.2,1.8,1.5,2.3c2.2,4.3,3.8,9.6,4.8,14.4c1,5.4,2.9,10.7,5.6,15.5c1.2,2.2,2.7,4.4,4.5,6.3c0.3,0.3,0.7,0.7,1,1     c1.5,1.1,1.5,1.2,0.1,0.3c-2.3,0-4.8-0.7-6.7-1.9c-3.6-2.2-7.3-6-10-9.3c-1.7-2.1-5-7.2-4-10.3c0.7-2.3-2.9-3.3-3.6-1     c-0.8,2.5,0.5,5.6,1.4,7.9c2,4.9,5.4,8.1,9.3,11.8c3.8,3.7,8.1,6.7,13.7,6.7c3.9,0,6.5-2.5,3.7-5.8c-2.5-2.9-5-5.2-6.8-8.7     c-1.6-3.3-3.3-7-4.1-10.6c-0.7-3.1-1.2-6-2.2-9.1c-1.1-3.5-2.8-11.7-7-13c-7.5-2.3-7.7,18.2-8,21.4     C93.9,205.2,97.7,205.2,97.9,202.8z"/>
		</g>
	</g>
	<g>
		<path class="st4" d="M57.5,207.4c6.2-0.4,12.4,2.8,18.2,0.7s11.2-5.7,14.4-10.7c1.5-2.3,2.5-4.7,3.2-7.3    c2.1-7.5,0.8-15.6-1.9-22.9c6.2-2,11.6-10,13.1-16.1c3.4,10.8,6,25.2,3.5,36.2c-0.7,3.1-1.8,6.2-3.3,9.1    c-3.7,7.5-10.2,14.3-18.7,16.5c-2.8,0.7-5.7,0.9-8.6,1c-6.5,0.2-13-0.2-19.2-1.8L57.5,207.4z"/>
		<g>
			<path class="st2" d="M57.5,209.3c6.3-0.1,12.5,2.6,18.7,0.6c5-1.6,10-4.8,13.5-8.8c8.4-9.6,7.5-23.1,3.6-34.4     c-0.4,0.8-0.9,1.5-1.3,2.3c7.4-2.8,12.3-10,14.4-17.4c-1.2,0-2.4,0-3.6,0c5,16.5,7.9,36.2-3.9,50.6c-6.1,7.4-13.8,9.7-23.1,9.8     c-4.3,0-11.4,0.7-15.3-1.3c-0.3,0.9-0.5,1-0.5,0.2c-0.1-0.5-0.2-1.1-0.3-1.6c-0.1-0.8-0.3-1.6-0.4-2.4c-0.4-2.4-4-1.4-3.6,1     c0.3,1.6,0.5,3.1,0.8,4.7c0.1,0.6,0.7,1.2,1.3,1.3c16.9,3.9,35.7,3.3,46.2-12.3c10.2-15.2,7.5-34.4,2.4-51     c-0.5-1.8-3.1-1.8-3.6,0c-1.7,6-5.7,12.5-11.8,14.8c-0.9,0.3-1.7,1.3-1.3,2.3c3.6,10.5,4.8,23.2-3.6,31.8     c-3.1,3.2-7.9,6.3-12.4,7.2c-5.2,1-10.8-1.3-16.1-1.2C55,205.6,55,209.3,57.5,209.3z"/>
		</g>
	</g>
	<g>
		<path class="st4" d="M114.3,128.1c3-2.1,7.4,1.1,11,0.5c3.7-0.6,7.3-2.4,9.3-5.4c1.1-1.6,1.7-3.5,2.9-5c2.1-2.7,5.9-3.9,9.2-3    c1.2,0.3,2.3,1,3.1,1.9c2.6,2.9,1.6,7.4,0.5,11.2c-3.2,11.2-5.6,22.5-7.2,34c-2.2,16.2-2.7,32.6-0.3,48.7s8.3,31.7,16.9,45.5    c2.8,4.5-1,3.6-1,3.6c-7.4-3.4-12.7-10.1-17.7-16.6c-2.3-3-4.7-6-6.6-9.4c-2.3-3.9-3.9-8.1-5.2-12.4c-8.1-26.8-3.8-55.9,4.7-82.6    l2.6-3.4c-3.8,5-10.6,6.6-16.8,5.3c-2-0.4-4.9-2.2-6.3-3.7s-1.2-4.6-0.6-6.6C113,130.8,113.2,128.9,114.3,128.1z"/>
		<g>
			<path class="st2" d="M115.2,129.8c3.3-1.6,8.2,1.3,11.9,0.5c3.5-0.8,6.7-2.8,8.8-5.6c1-1.3,1.5-2.8,2.4-4.2     c2.3-3.5,6.4-4.8,9.5-1.8c4.2,3.9-0.5,13.7-1.7,18.6c-5.3,21.8-8.1,44.8-5.9,67.2c1,10,3.1,19.8,6.4,29.3c1.6,4.5,3.5,9,5.6,13.3     c1,2.1,2.1,4.1,3.3,6.2c0.6,1,1.1,2.1,1.8,3c0.7,1,2.9,2.7,1,1.8c-8.9-4.4-16.2-15-21.3-23.1c-5.8-9.3-8.4-20.7-9.5-31.5     c-1.3-12.5-0.4-25.2,1.8-37.6c1.7-9.3,3.1-21.1,8.9-28.8c1.3-1.7-1.6-3.9-2.9-2.3c-3.4,4.1-8.5,5.8-13.8,5c-4.3-0.7-9.9-5.5-6-10     c1.6-1.8-1.1-4.5-2.7-2.7c-4.4,5.1-2.2,11.8,3.2,14.8c7.1,3.9,16.7,1.6,21.8-4.4c-1-0.8-2-1.5-2.9-2.3     c-5.9,7.8-7.3,19.3-9.1,28.8c-2.4,12.7-3.4,25.7-2.2,38.6c1.1,11.8,3.8,24.2,10.1,34.3c5.6,8.9,13.2,19.4,22.6,24.5     c1.5,0.8,3.5,1.7,5.1,0.5c3.1-2.3-0.6-6.7-1.9-8.9c-6.7-11.4-11.5-23.9-14-36.9c-5.6-28.4-1.4-58.4,6.3-86     c1.2-4.5,2.8-10-0.8-13.9c-2.8-3-7.6-3.4-11.2-1.7c-5.1,2.3-5.6,8.5-10.4,11.2c-3.6,2-6.4,1.3-10.2,0.6c-2.3-0.4-4-0.4-6.1,0.6     C111.1,127.6,113,130.8,115.2,129.8z"/>
		</g>
	</g>
	<g>
		<path class="st4" d="M195.5,259.4c-5-18.4-9-37.2-12.1-56.1c-2.9-17.8-5.1-36.4,0.6-53.5l1.1-4.8c1.1-6.1,2.7-12,4.6-17.9    c0.8-2.4,1.7-4.9,1.3-7.5c-0.4-2.5-2.4-5-5-4.9c-2.2,0.1-2.8-2.1-4.3-0.6c-3.6,3.4-9.5,9.5-14.4,9.9c-1.9,0.1-3.9,0-5.7,0.5    c-1.9,0.4-3.7,1.5-4.5,3.3l-0.2,2.9c0.7,2.6,2,5.2,4.4,6.3c0.9,0.4,1.9,0.5,2.9,0.6c3.6,0.1,7.2-1.2,9.9-3.6l-1.6,3.6    c-9.5,27.9-9.5,58.9,0.2,86.8l1.5,4.1c1.5,4.1,2.9,8.2,4.5,12.2c0,0,7.6,19.6,11.5,21.4c4,1.8,3.8,0.3,4.9,0    C196.2,261.7,195.5,259.4,195.5,259.4z"/>
		<g>
			<path class="st2" d="M197.3,258.9c-5-18.5-9-37.2-12.1-56.1c-1.5-9.4-2.8-18.8-2.9-28.3c0-8.7,1.6-16.6,3.7-25     c1.7-6.7,2.8-13.6,4.9-20.2c1.5-4.9,4.1-12.1-1.6-15.6c-1.6-1-4.4-1.8-6.3-1.9c-2.3-0.1-4,2.2-5.5,3.6c-2.7,2.5-5.9,5.7-9.6,6.5     c-3.6,0.8-7.3-0.2-10.4,2.3c-4,3.1-2.8,9.1,0.4,12.5c4.8,5,12.9,2.1,17.5-1.5c-1-0.8-2-1.5-2.9-2.3     c-13.1,29.4-11.3,65.7-0.3,95.4c3.6,9.7,6.9,19.7,12,28.8c1.8,3.3,4.3,7.5,8.6,7.6C196.1,264.8,198.1,262.2,197.3,258.9     c-0.6-2.3-4.2-1.3-3.6,1c0.6,2.1-2.9,0.2-3.6-0.4c-1.2-1.2-2.1-3.1-3-4.6c-2.1-3.8-3.8-7.7-5.4-11.7c-3.2-7.7-6.2-15.7-8.7-23.7     c-8.2-26.6-8.8-58.9,2.7-84.7c0.9-2-1.2-3.6-2.9-2.3c-3.6,2.9-15.3,5.3-14-2.9c0.7-4.6,6.5-3.1,10.1-4c2.5-0.6,4.7-2.1,6.8-3.6     c2.5-1.9,5.3-6,8.3-5.8c9.7,0.8,2.3,15.4,0.9,21.1c-1.4,5.7-2.7,11.5-4.1,17.2c-3.9,16.2-1.8,33.1,0.8,49.3     c3.1,18.9,7.1,37.6,12.1,56.1C194.3,262.3,197.9,261.3,197.3,258.9z"/>
		</g>
	</g>
	<g>
		<path class="st4" d="M103.7,141.2c-0.9,2.7-1.3,4.1-2,5.4c0,0-0.9,1.7-2.3,3.6c-5,3.7-11,6.8-17.6,8.5s-13.3,4.2-19.2,7.4    c-8.1,4.5-13.1,13.3-14.8,22.4c-3.2,17.9,10.4,23.8,17.7,29.2c7,5.2-8.2-20.4-4.5-29.7c3.6-9.1,12.7-13.3,20.9-16.3    c11.5-4.2,12.1-3.2,16.7-7.8c8.5-8.5,6.3-25.2,5.9-25.3C104.4,138.7,104.4,139,103.7,141.2z"/>
		<g>
			<path class="st2" d="M101.9,140.7c-1.6,5.1-3.2,8.2-8.1,11c-5.5,3.3-11.4,4.7-17.5,6.7c-9.6,3-19.1,7.1-24.8,15.7     c-4.8,7.2-7.6,17.3-5.3,25.8c1.8,6.8,6.9,11.6,12.4,15.5c1.9,1.3,8.1,7.4,10.3,3.7c1.9-3.2-2.5-10.7-3.5-13.6     c-2.7-7.9-5.4-15.6,0.9-22.6c6.8-7.4,17.2-9.4,26.2-12.8c6.7-2.5,11.1-8.4,12.9-15.2c1.1-4.2,3.2-13.7,0.2-17.6     c-0.8-1-2.4-0.5-2.9,0.4C102.4,138.6,102.2,139.9,101.9,140.7c-0.7,2.3,2.9,3.3,3.6,1c0,0.1,0.6-2,0.6-2.1c-1,0.1-2,0.3-2.9,0.4     c-0.8-1-0.1,0.2-0.1,1c0,1.2,0.2,2.4,0.2,3.6c0,3.5-0.4,7.1-1.5,10.5c-2.3,7.1-6.9,10.4-13.7,12.7c-11.4,3.8-30.3,10.1-29.4,25.3     c0.4,5.9,2.6,11.7,4.6,17.2c0.6,1.7,1,4.8,2.1,6.3c0.1,0.2,0.1,0.9,0.2,0.9c0.6,0.2,1.5-0.4,1.4-1c-0.1-0.5-2.8-2-3.2-2.2     c-5.5-3.7-11.2-7.6-13.5-14.2c-3-8.9,0.8-20.3,6.9-27.1c8.1-9,20.9-10.2,31.6-14.5c4.1-1.6,9.1-3.8,12.2-7     c2.5-2.6,3.6-6.4,4.6-9.7C106.3,139.4,102.6,138.4,101.9,140.7z"/>
		</g>
	</g>
	<g>
		<path class="st4" d="M195.2,136.9c0.1,0.8,0.4,1.5,0.5,2.3c1.4,10.4,6.5,20.3,15,26.4c8.5,6.1,21,7.1,29.4,0.8    c3.2-2.4,5.7-5.7,7.6-9.2c7.9-14,5.5-45.5,1-46.3c-1.6,0.5-2.8,18.2-5.5,27c-1.4,4.5-3,9-6,12.6s-7.6,6.2-12.2,5.5    c-4.4-0.6-8.1-3.9-10.2-7.7c-2.2-3.9-3.1-8.3-4-12.6s-1.9-8.7-4.1-12.6c-0.7-1.2-1-1.8-3.5-2.2c-1.2-0.2-2,0.3-2.8,1.2    c-3.6,3.6-5.6,8.7-5.5,13.7L195.2,136.9z"/>
		<g>
			<path class="st2" d="M193.4,137.4c2.1,9.6,4.4,18.4,11.5,25.6c6.7,6.9,16.2,10.6,25.8,9.2c18.4-2.8,23.7-23.1,24.1-38.9     c0.2-6.5,0.2-14.1-2.2-20.3c-1.1-3-4.2-5.9-6.1-1.9c-1.2,2.6-1.3,6.2-1.7,9c-0.7,4.7-1.3,9.4-2.4,14c-1.1,4.9-2.7,10.1-5.7,14.1     c-5.7,7.8-15.3,7.4-20.2-1c-3.3-5.6-3.5-12.5-5.4-18.6c-1-3.4-2.4-8.1-6.1-9.3C196.7,116.6,191.9,131.4,193.4,137.4     c0.6,2.3,4.2,1.4,3.6-1c-0.9-3.5,1.2-11.2,4.7-13c5-2.6,6.6,9.6,7.3,12.7c1.6,7.3,3.5,15.4,10.3,19.7c6,3.8,13.3,2,18.2-2.9     c5.2-5.2,7.5-13.2,8.8-20.2c1.2-6,3-13,3.2-19.1c0-0.3,0.4-1.1,0.3-1.2c0.1,0.1-1.5-0.3-1.7,0.2c-0.1,0.1,0.8,1.7,0.9,1.9     c1,2.6,1.3,5.5,1.5,8.2c1.3,13.2,0.6,30.4-9.6,40.3c-8.7,8.4-22.6,6.9-31.4-0.7c-8.1-6.9-10.5-16.1-12.7-26     C196.5,134,192.9,135,193.4,137.4z"/>
		</g>
	</g>
</g>
<g id="dots">
	<g>
		<path class="st5" d="M62.9,207.3c-0.4,0.7-0.6,1.6-0.3,2.4s1.2,1.3,1.9,0.9c0.5-0.3,0.7-1,0.6-1.5c-0.1-0.6-0.4-1.1-0.7-1.6    c-0.2-0.3-0.5-0.7-0.8-0.8c-0.4-0.1-0.9,0.1-0.9,0.5"/>
		<g>
			<path class="st2" d="M62.4,207c-0.6,1.3-0.9,2.8,0.3,3.9c0.9,0.8,2.3,0.6,2.9-0.5c0.6-1.2-0.1-2.6-0.8-3.5     c-0.4-0.5-0.9-0.9-1.6-0.8c-0.5,0.1-1,0.5-1,1c-0.1,0.8,1.1,1.1,1.2,0.3c0-0.3,0.5,0.4,0.6,0.4c0.1,0.2,0.3,0.4,0.4,0.7     c0.2,0.4,0.4,1,0.1,1.5c-0.4,0.5-1,0.1-1.2-0.4c-0.3-0.6,0-1.4,0.2-1.9C63.8,206.9,62.7,206.2,62.4,207L62.4,207z"/>
		</g>
	</g>
	<g>
		<path class="st5" d="M59.6,201.7c-0.9,0.7-0.5,2.4,0.6,2.7s2.3-0.9,2-2c-0.2-0.7-0.8-1.1-1.4-1.5c-0.3-0.1-0.5-0.3-0.8-0.3    s-0.6,0.2-0.6,0.5"/>
		<g>
			<path class="st2" d="M59.1,201.3c-0.8,0.8-0.9,2.2-0.2,3.1c0.8,1,2.3,1,3.2,0.1c1-1,0.9-2.4-0.1-3.3c-0.9-0.8-2.8-1.6-3.3,0     c-0.2,0.8,1,1.1,1.2,0.3c0.1-0.3,1.3,0.6,1.4,0.8c0.4,0.5,0.3,1.2-0.3,1.5c-1,0.6-1.7-0.9-1-1.6     C60.6,201.6,59.7,200.7,59.1,201.3L59.1,201.3z"/>
		</g>
	</g>
	<g>
		<path class="st5" d="M57.3,193.3c-0.2,0.9-0.2,1.9,0,2.8c0.1,0.6,0.4,1.3,1,1.5c0.6,0.1,1.2-0.3,1.4-0.8s0.1-1.2,0-1.8    s-0.3-1.1-0.7-1.6c-0.4-0.4-1.1-0.6-1.6-0.3"/>
		<g>
			<path class="st2" d="M56.7,193.2c-0.3,1.3-0.4,3,0.3,4.2c0.6,1,2,1.2,2.8,0.3c1.6-1.7,0-6.3-2.7-5.1c-0.7,0.3-0.1,1.4,0.6,1.1     c1.3-0.6,2,3.2,0.8,3.3c-0.6,0.1-0.8-1.1-0.8-1.5c-0.1-0.7,0-1.4,0.1-2C58.1,192.7,56.9,192.4,56.7,193.2L56.7,193.2z"/>
		</g>
	</g>
	<g>
		<path class="st5" d="M58.3,185.2c-0.7,1.2-1.4,2.5-0.9,3.8c0.1,0.4,0.4,0.7,0.7,0.8c0.7,0.2,1.4-0.5,1.7-1.2c0.5-0.9,1-2,0.3-2.8    c-0.5-0.5-1.2-0.5-1.9-0.5"/>
		<g>
			<path class="st2" d="M57.8,184.9c-0.7,1.3-1.5,2.8-1,4.3c0.4,1.1,1.6,1.6,2.7,0.8c1-0.7,1.8-2.3,1.7-3.5     c-0.1-1.5-1.6-1.8-2.8-1.8c-0.8,0-0.8,1.3,0,1.2c0.7,0,1.7,0,1.6,1c-0.1,0.6-0.5,1.4-0.9,1.8c-0.9,0.9-1.2-0.4-1.1-1.2     c0.1-0.8,0.6-1.5,0.9-2.1C59.3,184.8,58.2,184.2,57.8,184.9L57.8,184.9z"/>
		</g>
	</g>
	<g>
		<path class="st5" d="M63.8,177.9c-0.9,0.7-1.6,1.8-1.9,2.9c-0.1,0.4-0.1,0.8,0,1.2c0.2,0.4,0.6,0.7,0.9,0.5    c0.2-0.1,0.4-0.2,0.6-0.4c0.8-0.9,1.5-1.8,2.1-2.8c0.3-0.5,0.5-1.1,0.2-1.5c-0.4-0.5-1.2-0.3-1.8,0"/>
		<g>
			<path class="st2" d="M63.3,177.4c-1.2,1-2.3,2.6-2.1,4.2c0.2,1.5,1.7,1.8,2.7,0.9c0.6-0.6,1.1-1.3,1.6-2c0.4-0.6,1-1.4,1.1-2.2     c0.1-1.7-1.7-1.7-2.8-1.2c-0.7,0.3-0.1,1.4,0.6,1.1c0.2-0.1,0.4-0.1,0.6-0.2c0.3,0.3,0.4,0.6,0.1,0.9c-0.1,0.3-0.4,0.6-0.5,0.8     c-0.4,0.6-0.9,1.2-1.4,1.8c-0.1,0.1-0.2,0.2-0.3,0.3c-0.4-0.2-0.5-0.5-0.3-0.9c0.1-0.3,0.2-0.7,0.3-0.9c0.3-0.7,0.8-1.2,1.4-1.7     C64.8,177.8,63.9,176.9,63.3,177.4L63.3,177.4z"/>
		</g>
	</g>
	<g>
		<path class="st5" d="M70.4,173.5c-0.6,0.2-1.3,0.5-1.7,1c-0.4,0.5-0.4,1.4,0.2,1.7c0.3,0.2,0.6,0.1,1,0.1c1.2-0.2,2.3-0.5,3.3-1.1    c0.5-0.3,1.1-0.8,0.8-1.3c-0.1-0.2-0.3-0.4-0.6-0.5c-0.9-0.4-1.9-0.4-2.8,0"/>
		<g>
			<path class="st2" d="M70.2,172.9c-1.2,0.5-2.8,1.4-2.3,3c0.5,1.7,2.7,1.1,3.9,0.7c1.1-0.4,3.2-1.1,2.9-2.7     c-0.4-1.6-3-1.6-4.2-1.1c-0.7,0.3-0.4,1.5,0.3,1.2c0.5-0.2,1.6-0.5,2.1-0.1c0.9,0.7-0.9,1.2-1.4,1.4s-1.2,0.5-1.8,0.4     c-1.8-0.2,0.2-1.4,0.7-1.6C71.3,173.8,71,172.6,70.2,172.9L70.2,172.9z"/>
		</g>
	</g>
	<g>
		<path class="st5" d="M80,169c-1.1,0.2-2,0.9-2.7,1.7c-0.3,0.4-0.6,1-0.3,1.5c0.3,0.4,0.9,0.5,1.4,0.4c0.7-0.1,1.5-0.5,2.1-0.9    c0.5-0.4,0.9-0.9,0.8-1.5C81.3,169.4,80.7,169.3,80,169"/>
		<g>
			<path class="st2" d="M79.8,168.4c-1.3,0.3-2.7,1.2-3.3,2.5c-0.6,1.3,0.3,2.4,1.7,2.3c1.3-0.1,3-0.9,3.6-2.2     c0.7-1.4-0.4-2.2-1.6-2.7c-0.8-0.3-1.1,0.9-0.3,1.2c0.3,0.1,0.7,0.2,0.8,0.5c0.2,0.4-0.2,0.7-0.4,1c-0.5,0.5-1.4,0.9-2.1,0.9     c-1.1,0.1-0.2-1.1,0.2-1.4c0.5-0.5,1.1-0.8,1.8-0.9C81,169.4,80.6,168.2,79.8,168.4L79.8,168.4z"/>
		</g>
	</g>
	<g>
		<path class="st5" d="M86.8,167.3c-0.5-0.3-1.1,0.2-1.5,0.7s-0.9,1.2-0.4,1.7c0.3,0.4,1,0.3,1.4,0.1c0.6-0.3,1.2-0.6,1.7-1    c0.4-0.3,0.7-0.7,0.7-1.1c0-0.4-0.4-0.8-0.9-0.8c-0.4,0-0.9,0.2-1.2,0.4"/>
		<g>
			<path class="st2" d="M87,166.7c-1.3-0.4-2.6,1-2.9,2.2c-0.3,1.5,1.2,1.9,2.4,1.5c1.1-0.4,3-1.4,2.9-2.7c0-0.6-0.5-1.2-1.1-1.4     c-0.7-0.2-1.4,0.1-2,0.6s0.3,1.4,0.9,0.9c0.3-0.2,1.2-0.5,0.8,0.3c-0.1,0.2-0.4,0.3-0.5,0.4c-0.4,0.3-0.8,0.5-1.2,0.7     c-0.4,0.2-1,0.4-0.8-0.3c0.1-0.4,0.8-1.1,1.2-0.9C87.4,168.2,87.8,167,87,166.7L87,166.7z"/>
		</g>
	</g>
	<g>
		<path class="st5" d="M94,163.4c-1,0.6-1.7,1.6-2,2.8c0,0.2-0.1,0.3,0,0.5s0.4,0.2,0.7,0.2c1.7-0.1,3.3-1.1,4.1-2.5    c0.1-0.1,0.1-0.3,0.1-0.4c0-0.3-0.4-0.5-0.7-0.7C95.4,162.9,94.6,162.8,94,163.4"/>
		<g>
			<path class="st2" d="M93.6,162.9c-1.1,0.7-2.5,2.2-2.3,3.7c0.2,1.6,2.7,0.7,3.6,0.3c1-0.5,2.9-1.9,2.5-3.2     C97.1,162.1,94.7,162.1,93.6,162.9c-0.6,0.5,0,1.6,0.6,1.1c0.5-0.4,0.9-0.4,1.5-0.2c0.5,0.2,0.5,0.2,0.3,0.5     c-0.3,0.6-1.1,1.2-1.7,1.5c-0.3,0.2-0.6,0.3-0.9,0.3c-0.5,0.1-0.8,0.3-0.7-0.4c0.2-0.8,0.9-1.4,1.5-1.8     C94.9,163.5,94.3,162.4,93.6,162.9L93.6,162.9z"/>
		</g>
	</g>
	<g>
		<path class="st5" d="M99.2,158.6c-0.6,0.4-1,1-1.3,1.6c-0.2,0.4-0.3,0.9,0,1.2c0.4,0.6,1.4,0.3,1.9-0.3c0.7-0.7,1.1-1.8,1.2-2.8    c0-0.5-0.2-0.1-0.7-0.2C99.6,158,99.9,158.1,99.2,158.6"/>
		<g>
			<path class="st2" d="M98.8,158.1c-0.9,0.7-2.2,2.4-1.4,3.6c0.7,1.1,2.3,0.5,3-0.3c0.5-0.5,0.8-1.2,1-1.9c0.1-0.5,0.4-1.4,0-1.8     c-0.3-0.4-0.8-0.1-1.2-0.2C99.6,157.4,99.4,157.7,98.8,158.1c-0.6,0.4,0.1,1.4,0.7,1c0.2-0.1,0.3-0.3,0.5-0.4c0,0,0,0,0.1-0.1     c-0.2,0.1-0.2,0.1,0,0.1c0.1,0,0.3,0,0.4,0c0,0,0.4-0.1,0.3-0.1c-0.1-0.1-0.3-0.1-0.4-0.2c-0.1-0.3-0.2-0.3-0.1,0     c0,0.2,0,0.3-0.1,0.4c-0.1,0.3-0.2,0.6-0.3,0.8c-0.2,0.4-0.5,0.9-1,1.2c-0.1,0.1-0.4,0.2-0.5,0.1c-0.2-0.2,0-0.6,0.1-0.8     c0.2-0.5,0.7-1,1.1-1.3C100.3,158.5,99.4,157.6,98.8,158.1L98.8,158.1z"/>
		</g>
	</g>
	<g>
		<path class="st5" d="M101.9,152.5c-0.5,0.9-0.6,2-0.4,3c0.1,0.3,0.2,0.7,0.4,0.8c0.5,0.3,1.1-0.2,1.4-0.7c0.5-0.9,0.7-2,0.5-3    c-0.1-0.4-0.3-0.9-0.7-1C102.8,151.4,101.8,152,101.9,152.5"/>
		<g>
			<path class="st2" d="M101.4,152.1c-0.5,1.2-1.1,3.3-0.1,4.4c1.1,1.2,2.5-0.3,2.9-1.4c0.4-1.2,0.7-3.3-0.6-4.1     c-0.9-0.5-2.3,0.3-2.3,1.3c0,0.8,1.3,0.8,1.2,0c0-0.4,0.6,0,0.6,0.1c0.1,0.2,0.1,0.5,0.1,0.7c0,0.6-0.1,1.3-0.4,1.9     c-0.1,0.2-0.3,0.7-0.7,0.4c-0.2-0.1-0.1-0.7-0.1-0.8c0-0.7,0.1-1.3,0.4-1.9C102.8,152,101.7,151.4,101.4,152.1L101.4,152.1z"/>
		</g>
	</g>
	<g>
		<path class="st5" d="M76.4,207.7c-0.7,0.3-1.3,0.7-1.9,1.2c-0.2,0.2-0.4,0.4-0.3,0.6c0.1,0.1,0.2,0.2,0.4,0.2    c0.5,0.2,1.1,0.3,1.7,0.1c0.5-0.1,1-0.6,1.1-1.1C77.4,208.2,76.9,207.6,76.4,207.7"/>
		<g>
			<path class="st2" d="M76,207.2c-0.5,0.3-1,0.6-1.5,0.9c-0.4,0.3-0.9,0.6-1,1.2c-0.2,1.2,1.4,1.4,2.2,1.4c0.9,0,1.9-0.6,2.1-1.6     s-0.5-2-1.5-2c-0.8,0-0.8,1.2,0,1.2c0.5,0,0.3,0.6,0.1,0.8c-0.4,0.3-0.9,0.3-1.3,0.2c-0.1,0-0.2,0-0.3-0.1     c-0.2-0.1-0.1,0,0.1,0.2c0.1,0,0.4-0.3,0.5-0.4c0.4-0.3,0.8-0.5,1.3-0.7C77.4,207.9,76.8,206.8,76,207.2L76,207.2z"/>
		</g>
	</g>
	<g>
		<path class="st5" d="M81.3,205.4c-0.6,0.3-1.2,0.8-1.5,1.4c-0.3,0.5-0.4,1.3,0.1,1.5c0.3,0.2,0.7,0.1,1-0.1c0.6-0.2,1.2-0.5,1.6-1    s0.6-1.3,0.2-1.8s-1.3-0.7-1.7-0.2"/>
		<g>
			<path class="st2" d="M81,204.9c-1.1,0.5-2.2,1.7-2,3c0.3,1.6,1.9,1.2,2.9,0.7c1.1-0.6,2.1-1.8,1.6-3.1c-0.4-1.1-2-1.5-2.8-0.6     c-0.5,0.6,0.3,1.5,0.9,0.9c0.4-0.4,0.8,0.2,0.8,0.6c-0.1,0.7-0.7,1.1-1.3,1.3c-0.1,0.1-0.7,0.3-0.8,0.2c-0.2-0.1,0-0.5,0-0.6     c0.3-0.6,0.8-1,1.3-1.3C82.3,205.6,81.7,204.5,81,204.9L81,204.9z"/>
		</g>
	</g>
	<g>
		<path class="st5" d="M88,201.8c-1.3,0.4-2.3,1.7-2.1,3.1c0.7,0,1.5-0.1,2.1-0.4c0.6-0.3,1.2-0.9,1.2-1.7c0-0.7-0.6-1.4-1.3-1.4"/>
		<g>
			<path class="st2" d="M87.8,201.2c-1.6,0.5-2.7,2-2.6,3.7c0,0.3,0.3,0.6,0.6,0.6c1.5-0.1,3.2-0.4,3.8-2c0.5-1.3-0.4-2.7-1.8-2.7     c-0.8,0-0.8,1.3,0,1.2c0.9,0,0.7,1.1,0.3,1.5c-0.6,0.6-1.5,0.7-2.3,0.7c0.2,0.2,0.4,0.4,0.6,0.6c-0.1-1.1,0.6-2.1,1.7-2.5     C88.9,202.2,88.6,200.9,87.8,201.2L87.8,201.2z"/>
		</g>
	</g>
	<g>
		<path class="st5" d="M91.2,196.1c-0.6,0.6-1,1.3-1.3,2.1c-0.2,0.4-0.2,1,0,1.3c0.3,0.4,1,0.4,1.4,0.1c0.4-0.3,0.7-0.8,0.9-1.3    c0.2-0.5,0.4-1,0.2-1.5C92.4,196.3,91.8,195.9,91.2,196.1"/>
		<g>
			<path class="st2" d="M90.8,195.6c-0.8,0.9-1.6,2.1-1.6,3.3s1.2,1.7,2.2,1.3s1.7-1.9,1.8-3c0.1-1.1-0.9-2.3-2.1-1.8     c-0.7,0.3-0.4,1.5,0.3,1.2c0.7-0.3,0.4,0.9,0.3,1.2c-0.1,0.4-0.5,1.3-1,1.2c-1-0.1,0.7-2.4,0.9-2.7     C92.2,195.9,91.3,195,90.8,195.6L90.8,195.6z"/>
		</g>
	</g>
	<g>
		<path class="st5" d="M93.8,191.1c-0.6,0.6-0.8,1.4-0.7,2.1c0.1,0.5,0.3,0.9,0.7,1.1c0.4,0.2,0.9,0,1.2-0.3    c0.3-0.3,0.5-0.7,0.6-1.1c0.2-0.7,0.2-1.5,0-2.3c0-0.2-0.1-0.4-0.2-0.5c-0.3-0.3-0.7-0.2-1,0S94,190.8,93.8,191.1"/>
		<g>
			<path class="st2" d="M93.4,190.7c-0.9,1-1.3,2.5-0.5,3.7c0.8,1.1,2.3,0.8,3-0.2s1-3.2,0.2-4.2c-0.9-1.2-2.2,0-2.7,0.9     c-0.3,0.7,0.8,1.4,1.1,0.6c0.2-0.5,0.7-1,0.7-0.1c0,0.5,0,1.1-0.2,1.6c-0.2,0.6-0.9,1.2-1.2,0.3c-0.2-0.6,0.1-1.3,0.5-1.8     C94.8,191,93.9,190.1,93.4,190.7L93.4,190.7z"/>
		</g>
	</g>
	<g>
		<path class="st5" d="M94.4,185.5c0,0.5,0,1.1,0.2,1.5c0.2,0.5,0.7,0.9,1.2,0.8c0.5-0.1,0.8-0.5,1-0.9c0.2-0.5,0.3-1.2,0.1-1.7    c-0.2-0.5-0.8-0.9-1.3-0.9C94.9,184.4,94.3,184.9,94.4,185.5"/>
		<g>
			<path class="st2" d="M93.7,185.5c0,1.1,0.1,2.5,1.4,2.9s2.2-0.8,2.4-1.9c0.2-1.1-0.3-2.4-1.5-2.7     C94.9,183.5,93.8,184.3,93.7,185.5c0.1,0.8,1.3,0.8,1.3,0c0-0.6,0.6-0.6,1-0.3c0.4,0.4,0.3,1,0.1,1.5c-0.2,0.5-0.6,0.8-1,0.2     c-0.3-0.4-0.2-1-0.2-1.4C95,184.7,93.8,184.7,93.7,185.5L93.7,185.5z"/>
		</g>
	</g>
	<g>
		<path class="st5" d="M94.8,178.8c-0.1,0.8,0.1,1.7,0.6,2.3c0.2,0.4,0.6,0.7,1,0.7c0.5,0,1-0.5,1.1-1s-0.1-1.1-0.3-1.6    c-0.2-0.6-0.6-1.2-1.1-1.4S94.7,178.2,94.8,178.8"/>
		<g>
			<path class="st2" d="M94.2,178.8c-0.1,1.3,0.4,3,1.7,3.5c1.3,0.5,2.3-0.7,2.3-1.9c0-1.1-0.7-2.8-1.8-3.2c-1.1-0.4-2.3,0.5-2,1.7     c0.2,0.8,1.4,0.5,1.2-0.3c-0.1-0.4,0.6,0,0.7,0c0.2,0.1,0.3,0.4,0.4,0.6c0.2,0.4,0.5,1.1,0.3,1.6c-0.2,0.8-0.8,0.3-1.1-0.2     c-0.3-0.6-0.4-1.2-0.3-1.8C95.5,178,94.3,178,94.2,178.8L94.2,178.8z"/>
		</g>
	</g>
	<g>
		<path class="st5" d="M93.7,171.2c0,0.2,0,0.4,0,0.6c0,0.5,0,1.1,0.3,1.6c0.2,0.5,0.7,0.9,1.2,1c0.8,0,1.4-0.7,1.5-1.5    c0.2-1.4-1.7-2.6-2.7-1.7"/>
		<g>
			<path class="st2" d="M93.1,171.2c0,1.3,0,2.8,1.3,3.5c1.1,0.7,2.4-0.1,2.8-1.3c0.7-2.1-1.9-4.1-3.6-2.7c-0.6,0.5,0.3,1.4,0.9,0.9     c0.8-0.6,1.8,0.6,1.6,1.3c-0.2,0.7-0.9,1-1.3,0.3c-0.4-0.6-0.3-1.4-0.3-2.1C94.3,170.4,93.1,170.4,93.1,171.2L93.1,171.2z"/>
		</g>
	</g>
	<g>
		<path class="st5" d="M98.1,208.9c0.2,0.8,0.4,1.5,0.7,2.2c0.2,0.4,0.5,0.9,0.9,1c0.8,0.3,1.6-0.5,1.6-1.4c0-0.8-0.4-1.6-0.9-2.2    c-0.3-0.4-0.5-0.8-1-0.9c-0.4-0.1-1,0.2-1,0.6"/>
		<g>
			<path class="st2" d="M97.5,209c0.3,1.2,0.7,3.1,2,3.6c1.2,0.4,2.3-0.6,2.5-1.8s-0.7-2.9-1.7-3.6c-0.9-0.7-2.2-0.4-2.4,0.9     c-0.1,0.8,1.2,0.8,1.2,0c0-0.3,0.9,0.7,0.8,0.6c0.1,0.2,0.2,0.3,0.3,0.5c0.3,0.5,0.8,1.4,0.2,1.9c-1,0.9-1.6-1.9-1.8-2.6     C98.5,207.9,97.3,208.2,97.5,209L97.5,209z"/>
		</g>
	</g>
	<g>
		<path class="st5" d="M101.6,214.3c0,0.2,0,0.3,0.1,0.5c0.2,0.5,0.4,1,0.8,1.4s1,0.6,1.5,0.5c0.7-0.2,1-1,0.8-1.7s-0.7-1.2-1.3-1.6    c-0.3-0.2-0.6-0.3-1-0.3c-0.3,0-0.7,0.2-0.8,0.6"/>
		<g>
			<path class="st2" d="M101,214.3c0.1,1.2,0.9,2.6,2.1,3c1.1,0.4,2.2-0.4,2.4-1.5c0.2-1.2-0.6-2.2-1.6-2.8s-2.3-0.7-2.8,0.6     c-0.3,0.8,0.9,1.1,1.2,0.3c0.2-0.5,1.2,0.3,1.4,0.5c0.3,0.3,0.6,0.8,0.5,1.2c-0.1,0.5-0.6,0.6-1.1,0.4c-0.4-0.3-0.9-1.1-0.9-1.6     C102.1,213.5,100.9,213.5,101,214.3L101,214.3z"/>
		</g>
	</g>
	<g>
		<path class="st5" d="M105.4,218.5c0.2,0.7,0.5,1.4,1,2c0.5,0.5,1.5,0.7,2,0.2c0.7-0.6,0.4-1.7-0.2-2.4c-0.3-0.4-0.8-0.8-1.3-0.9    c-0.5-0.1-1.1,0-1.5,0.5"/>
		<g>
			<path class="st2" d="M104.8,218.7c0.3,1.1,0.8,2.3,2,2.8c1,0.4,2.2-0.1,2.5-1.2c0.6-2.2-2.6-4.9-4.3-2.9     c-0.5,0.6,0.4,1.5,0.9,0.9c0.9-1,2.5,0.6,2.3,1.7c-0.2,0.6-0.9,0.5-1.2,0.2c-0.5-0.4-0.7-1.1-0.9-1.7     C105.8,217.6,104.6,217.9,104.8,218.7L104.8,218.7z"/>
		</g>
	</g>
	<g>
		<path class="st5" d="M110.6,222.5c0.2,0.8,1.1,1.2,2,1.4c0.4,0.1,0.8,0.2,1.2,0.1s0.8-0.3,0.9-0.7c0.2-0.7-0.5-1.2-1.1-1.5    c-0.8-0.4-2-0.6-2.6,0.1"/>
		<g>
			<path class="st2" d="M110,222.7c0.5,1.7,4.6,3.2,5.3,0.8c0.6-2.2-3.5-3.4-4.7-2c-0.5,0.6,0.4,1.5,0.9,0.9     c0.4-0.4,0.8-0.3,1.3-0.2c0.3,0.1,1.4,0.5,1.3,0.9c-0.1,0.8-2.7-0.2-2.9-0.8C111,221.6,109.8,221.9,110,222.7L110,222.7z"/>
		</g>
	</g>
	<g>
		<path class="st5" d="M113,134.8c0.3,0.7,0.6,1.3,1,1.9c0.3,0.5,0.8,1.1,1.3,1.3c0.6,0.3,1.4,0.1,1.7-0.4c0.3-0.5,0.2-1.2-0.1-1.7    c-0.6-1-1.6-1.6-2.7-1.8c-0.2,0-0.5,0-0.7,0.1s-0.3,0.5-0.1,0.6"/>
		<g>
			<path class="st2" d="M112.4,135c0.5,1.3,1.3,3.1,2.7,3.6c1.3,0.5,2.7-0.3,2.7-1.7s-1.3-2.6-2.5-3.1c-0.6-0.3-1.5-0.5-2.1-0.1     c-0.5,0.3-0.6,1-0.3,1.5c0.4,0.7,1.5,0,1.1-0.6c0,0.2,0.1,0.3,0.3,0.2c0.2,0,0.3,0.1,0.5,0.1c0.3,0.1,0.7,0.3,0.9,0.6     c0.4,0.3,1.2,1.3,0.8,1.9c-0.6,0.7-1.5-0.3-1.8-0.8c-0.4-0.6-0.8-1.3-1-1.9C113.3,133.9,112.1,134.3,112.4,135L112.4,135z"/>
		</g>
	</g>
	<g>
		<path class="st5" d="M121.1,138.7c-0.5,0.1-1,0-1.5,0c-0.5,0.1-1,0.4-1.1,0.9c-0.1,0.4,0.2,0.7,0.5,0.9s0.7,0.3,1,0.4    c0.6,0.1,1.2,0.3,1.8,0.1s1.1-0.8,0.9-1.4c-0.1-0.5-0.7-0.9-1.2-0.7"/>
		<g>
			<path class="st2" d="M121.1,138.1c-1.1,0.1-2.9-0.2-3.2,1.3c-0.3,1.5,1.4,2,2.5,2.2c1.2,0.2,2.7-0.2,2.9-1.6c0.2-1.2-0.9-2-2-1.8     c-0.8,0.2-0.5,1.4,0.3,1.2c0.2,0,0.5,0.2,0.5,0.4c0,0.3-0.4,0.5-0.7,0.5c-0.5,0.1-1.1,0-1.6-0.2c-0.2,0-0.6-0.1-0.6-0.3     c-0.1-0.3,0.1-0.5,0.3-0.6c0.4-0.2,1.1,0,1.6,0C121.9,139.3,121.9,138.1,121.1,138.1L121.1,138.1z"/>
		</g>
	</g>
	<g>
		<path class="st5" d="M127.8,139.2c-1.1-0.2-2.4,0.6-2.6,1.7c0,0.1,0,0.2,0,0.3c0.1,0.2,0.2,0.3,0.4,0.4c0.7,0.3,1.4,0.1,2.1-0.1    c0.4-0.2,0.8-0.4,1-0.7c0.3-0.3,0.4-0.8,0.3-1.2c-0.1-0.4-0.6-0.6-1-0.5"/>
		<g>
			<path class="st2" d="M128,138.6c-1.2-0.2-2.4,0.3-3,1.3c-0.3,0.5-0.5,1.1-0.3,1.6c0.2,0.6,0.9,0.8,1.5,0.8     c1.2,0.1,2.9-0.5,3.4-1.7c0.4-1.1-0.5-2.4-1.7-2c-0.8,0.2-0.4,1.4,0.3,1.2c0.4-0.1,0.2,0.4,0.2,0.5c-0.1,0.2-0.5,0.4-0.7,0.5     c-0.4,0.2-1.2,0.5-1.6,0.2H126c0-0.1,0.1-0.3,0.2-0.4c0.1-0.2,0.3-0.4,0.5-0.5c0.4-0.3,0.8-0.4,1.2-0.3     C128.4,139.9,128.8,138.7,128,138.6L128,138.6z"/>
		</g>
	</g>
	<g>
		<path class="st5" d="M132.4,136c-0.7,0.3-1.4,0.9-1.8,1.6c-0.2,0.4-0.3,0.9,0.1,1.1c0.2,0.1,0.4,0.1,0.6,0    c1.2-0.3,2.1-1.4,2.2-2.6c0-0.2,0-0.3-0.1-0.5c-0.2-0.2-0.5-0.2-0.7-0.1s-0.4,0.4-0.5,0.6"/>
		<g>
			<path class="st2" d="M132.1,135.5c-1,0.5-2.2,1.5-2.2,2.7c0,1.6,1.8,1.2,2.7,0.6c0.9-0.6,1.7-1.8,1.6-3c-0.1-0.6-0.5-1-1.1-1     c-0.7,0-1.1,0.5-1.5,1c-0.4,0.7,0.6,1.3,1.1,0.6c0.1-0.2,0.2-0.3,0.3-0.4c-0.1,0-0.2,0.1-0.1,0.2c-0.1,0.2-0.1,0.5-0.3,0.7     c-0.2,0.4-0.6,0.8-1,1c0,0-0.5,0.2-0.5,0.3c-0.1-0.1,0.3-0.6,0.3-0.6c0.3-0.5,0.8-0.8,1.3-1C133.5,136.2,132.8,135.2,132.1,135.5     L132.1,135.5z"/>
		</g>
	</g>
	<g>
		<path class="st5" d="M135.2,140.3c-1,0.4-1.7,1.4-1.9,2.4c-0.1,0.6-0.1,1.4,0.5,1.6c0.3,0.1,0.7,0,1-0.2s0.5-0.5,0.6-0.8    c0.3-0.5,0.4-1.1,0.5-1.7c0-0.2,0.1-0.5,0-0.7s-0.3-0.4-0.5-0.4"/>
		<g>
			<path class="st2" d="M135.1,139.7c-1.2,0.5-2,1.4-2.3,2.6c-0.3,0.9-0.2,2.2,0.9,2.6c1.3,0.5,2.1-0.8,2.5-1.8     c0.4-0.9,0.9-3-0.7-3.2c-0.8-0.1-1.1,1.1-0.3,1.2c0.4,0.1-0.2,1.7-0.3,1.9c-0.2,0.5-0.9,1.1-1,0.2c0-0.9,0.7-2,1.6-2.4     C136.1,140.6,135.8,139.4,135.1,139.7L135.1,139.7z"/>
		</g>
	</g>
	<g>
		<path class="st5" d="M138.1,135.8c-0.9,0.5-1.5,1.3-1.8,2.3c0,0.1,0,0.2,0,0.3c0.1,0.2,0.3,0.3,0.4,0.3c1,0.2,2.2-0.6,2.3-1.7    c0.1-0.6-0.2-1.2-0.7-1.3"/>
		<g>
			<path class="st2" d="M137.8,135.2c-0.9,0.5-1.6,1.4-2,2.4c-0.4,1.2,0.5,1.8,1.7,1.7c1-0.1,1.8-0.9,2.1-1.8c0.3-1-0.1-2.1-1.1-2.4     c-0.8-0.3-1.1,0.9-0.3,1.2c0.4,0.2,0.3,0.8,0.1,1.1c-0.2,0.4-0.6,0.7-1.1,0.7c-0.1,0-0.2,0-0.3,0c0.1,0-0.1,0.3,0.1,0     c0.1-0.2,0.2-0.4,0.3-0.6c0.3-0.5,0.7-0.8,1.1-1.1C139.1,135.9,138.5,134.8,137.8,135.2L137.8,135.2z"/>
		</g>
	</g>
	<g>
		<path class="st5" d="M132.6,147.4c-0.6,0.9-1,2-1.2,3c-0.1,0.4-0.1,0.9,0.3,1.2c0.3,0.2,0.7,0.1,0.9-0.1c0.9-0.5,1.1-1.7,1.1-2.8    c0-0.3,0-0.7-0.2-1c-0.1-0.3-0.5-0.5-0.8-0.5"/>
		<g>
			<path class="st2" d="M132.1,147.1c-0.7,1.1-1.4,2.7-1.3,4c0.1,1.1,1.2,1.5,2.2,1c1.6-1,2.3-5.1-0.2-5.4c-0.8-0.1-0.8,1.2,0,1.2     c0.7,0.1,0.3,2.9-0.5,3c-0.6,0.1-0.1-1.3,0-1.5c0.2-0.6,0.5-1.2,0.8-1.7C133.6,147,132.5,146.4,132.1,147.1L132.1,147.1z"/>
		</g>
	</g>
	<g>
		<path class="st5" d="M130.6,155.1c-0.6,0.9-0.9,1.9-0.8,3c0,0.4,0.1,0.9,0.4,1.1c0.4,0.2,0.9,0.1,1.2-0.1c0.3-0.3,0.5-0.7,0.5-1.1    c0.1-0.7,0-1.5-0.3-2.2C131.4,155.4,131.1,155,130.6,155.1"/>
		<g>
			<path class="st2" d="M130.1,154.7c-0.7,1.1-1.1,2.4-0.9,3.7c0.1,1,1,1.8,2.1,1.4c1.1-0.4,1.4-1.8,1.3-2.9c-0.1-1-0.5-2.6-1.8-2.4     c-0.8,0.1-0.8,1.3,0,1.2c0.5,0,0.5,1.2,0.6,1.5c0,0.3-0.2,2-0.9,1.3c-0.2-0.2,0-1.2,0-1.4c0.1-0.6,0.4-1.2,0.7-1.7     C131.6,154.7,130.5,154.1,130.1,154.7L130.1,154.7z"/>
		</g>
	</g>
	<g>
		<path class="st5" d="M129.2,162.9c-0.9,1.1-1.4,2.4-1.5,3.7c0,0.3,0,0.6,0.1,0.9c0.1,0.3,0.3,0.5,0.6,0.6s0.6,0,0.9-0.2    c0.5-0.4,0.7-1,0.9-1.6c0.1-0.6,0.2-1.2,0.1-1.8c-0.1-0.6-0.5-1.1-1.1-1.3"/>
		<g>
			<path class="st2" d="M128.7,162.4c-0.9,1.1-1.5,2.4-1.7,3.8c-0.1,1.1,0.2,2.7,1.6,2.5c1.3-0.2,1.8-1.7,2-2.9     c0.2-1.3,0-2.7-1.3-3.3c-0.7-0.3-1.4,0.8-0.6,1.1c0.8,0.4,0.9,1.2,0.7,2c-0.1,0.3-0.1,0.5-0.2,0.8c-0.1,0.3-0.5,1.4-1,0.3     c-0.2-0.4,0.2-1.3,0.3-1.6c0.2-0.7,0.6-1.4,1.1-2C130.1,162.7,129.2,161.8,128.7,162.4L128.7,162.4z"/>
		</g>
	</g>
	<g>
		<path class="st5" d="M128,171c-1.1,1-1.9,2.4-1.6,3.9c0.1,0.3,0.2,0.7,0.5,0.7c0.2,0,0.4-0.1,0.6-0.2c0.7-0.4,1.2-1.2,1.4-2    s0-1.7-0.4-2.4c-0.1-0.1-0.1-0.2-0.3-0.2C128.2,170.8,128,170.9,128,171"/>
		<g>
			<path class="st2" d="M127.6,170.6c-1.1,1-1.9,2.4-1.8,3.9c0.1,1.4,1.1,2.3,2.4,1.4c1.1-0.8,1.7-2.1,1.5-3.4     C129.6,171.6,128.6,169.3,127.6,170.6c-0.5,0.6,0.4,1.5,0.9,0.9c-0.3,0.1-0.4,0.2-0.2,0.5c0.1,0.2,0.1,0.3,0.2,0.5     c0.1,0.4,0,0.8-0.1,1.2s-0.7,1.5-1.2,1.2s0-1.5,0.1-1.8c0.3-0.6,0.7-1.1,1.1-1.5C129,170.9,128.1,170,127.6,170.6L127.6,170.6z"/>
		</g>
	</g>
	<g>
		<path class="st5" d="M126.5,179.4c-0.5,0.8-0.8,1.8-0.7,2.7c0,0.4,0.1,0.8,0.4,1.1c0.5,0.6,1.5,0.4,2.1-0.2    c0.5-0.6,0.6-1.4,0.5-2.2c-0.1-0.5-0.2-1-0.3-1.5c-0.1-0.2-0.2-0.5-0.4-0.6c-0.2-0.2-0.6-0.3-0.9-0.1c-0.3,0.1-0.5,0.4-0.5,0.8"/>
		<g>
			<path class="st2" d="M125.9,179.1c-0.7,1.2-1.3,3.3-0.3,4.5c0.9,1,2.6,0.6,3.3-0.5c0.7-1.2,0.6-3.4-0.2-4.6     c-0.8-1.3-2.5-0.6-2.7,0.8c-0.1,0.8,1.1,0.8,1.2,0c0.3,0,0.5,0.1,0.5,0.3c0.1,0.1,0.1,0.3,0.1,0.4c0.1,0.3,0.1,0.7,0.2,1     c0,0.6-0.1,1.4-0.7,1.7c-0.8,0.4-1-0.4-1-1.1c0-0.8,0.2-1.4,0.6-2.1C127.4,179,126.3,178.4,125.9,179.1L125.9,179.1z"/>
		</g>
	</g>
	<g>
		<path class="st5" d="M126.7,187.3c-1,0.8-1.4,2.3-1.1,3.6c0.1,0.5,0.3,0.9,0.8,1.1c0.3,0.1,0.7,0.1,1-0.1s0.5-0.5,0.6-0.8    c0.4-0.9,0.3-1.9,0-2.8c-0.1-0.3-0.2-0.7-0.4-0.9c-0.3-0.2-0.7-0.2-0.9,0.1"/>
		<g>
			<path class="st2" d="M126.2,186.8c-1.1,1-1.6,2.5-1.3,3.9c0.2,1.3,1.4,2.5,2.7,1.6c1.3-0.9,1.3-2.8,1-4.2     c-0.3-1.2-1.5-2.4-2.5-1.1c-0.5,0.6,0.6,1.3,1.1,0.6c-0.1,0.1,0.2,0.8,0.2,0.9c0.1,0.4,0.1,0.7,0.1,1.1c0,0.7-0.6,2.2-1.3,1.2     c-0.6-1,0.1-2.6,0.9-3.2C127.7,187.2,126.8,186.3,126.2,186.8L126.2,186.8z"/>
		</g>
	</g>
	<g>
		<path class="st5" d="M126.3,195.5c-0.4,1.1-0.6,2.3-0.3,3.5c0.1,0.6,0.4,1.2,0.9,1.4c0.6,0.2,1.3-0.2,1.5-0.8s0.1-1.2,0-1.9    c-0.1-0.5-0.3-1-0.5-1.5c-0.1-0.4-0.3-0.7-0.7-0.9C126.9,195,126.4,195.1,126.3,195.5"/>
		<g>
			<path class="st2" d="M125.7,195.3c-0.5,1.4-0.8,3.4,0,4.8c0.7,1.2,2.3,1.1,3,0c0.9-1.3,0.2-3.2-0.4-4.4     C127.8,194.6,126.4,193.9,125.7,195.3c-0.5,0.6,0.6,1.2,1,0.5c0.2-0.3,0.8,1.4,0.9,1.6c0.1,0.4,0.2,0.8,0.2,1.1     c0,0.5,0,0.9-0.7,0.9c-0.5,0-0.5-0.2-0.7-0.7c-0.1-0.3-0.1-0.7-0.1-1.1c0-0.7,0.2-1.4,0.4-2.1C127.2,194.9,126,194.6,125.7,195.3     L125.7,195.3z"/>
		</g>
	</g>
	<g>
		<path class="st5" d="M127,205.1c-0.4,1.1-0.3,2.3,0.2,3.4c0.1,0.2,0.2,0.4,0.4,0.5c0.2,0.1,0.5,0,0.7-0.1c0.4-0.3,0.6-0.8,0.7-1.3    c0-0.5-0.1-1-0.2-1.5c-0.2-0.5-0.3-0.9-0.6-1.4c-0.1-0.1-0.1-0.3-0.2-0.3c-0.2-0.1-0.4-0.2-0.6,0c-0.2,0.1-0.3,0.4-0.2,0.6"/>
		<g>
			<path class="st2" d="M126.4,204.9c-0.4,1.3-0.4,3.1,0.5,4.2c0.9,1.1,2.3,0.2,2.6-0.9c0.4-1.2-0.2-3.1-0.9-4.1     c-0.8-1.1-2.2-0.2-2,1c0.1,0.8,1.3,0.5,1.2-0.3c-0.1,0.1-0.1,0.3,0,0.4c0.1,0.2,0.2,0.4,0.2,0.5c0.1,0.2,0.1,0.4,0.2,0.6     c0.1,0.5,0.5,1.5,0,1.8c-0.5,0.4-0.7-0.7-0.8-1.1c-0.1-0.6,0-1.2,0.2-1.7C127.8,204.5,126.6,204.2,126.4,204.9L126.4,204.9z"/>
		</g>
	</g>
	<g>
		<path class="st5" d="M128,212.8c0,1,0,2,0.4,2.8c0.3,0.5,0.8,1,1.4,1c0.6,0,1.1-0.6,1.2-1.2c0.1-0.6-0.1-1.2-0.4-1.8    c-0.2-0.4-0.5-0.8-0.8-1.2c-0.2-0.3-0.5-0.6-0.8-0.6C128.5,211.7,128,212.2,128,212.8"/>
		<g>
			<path class="st2" d="M127.4,212.8c0,1.4,0,3.2,1.3,4.1c1.1,0.8,2.5,0.1,2.9-1.2c0.4-1.4-0.5-3-1.5-4c-1-1.1-2.4-0.4-2.8,0.9     c-0.2,0.8,1,1.1,1.2,0.3c0.3-1,1.1,0.2,1.3,0.6c0.3,0.5,0.8,1.4,0.4,2.1c-0.5,0.9-1.3-0.1-1.5-0.7c-0.2-0.7-0.2-1.4-0.2-2.1     C128.6,212,127.4,212,127.4,212.8L127.4,212.8z"/>
		</g>
	</g>
	<g>
		<path class="st5" d="M130,220.8c-0.1,0.8-0.2,1.6,0,2.4c0.2,0.8,0.8,1.5,1.6,1.6c0.2,0,0.5,0,0.7-0.1c0.1-0.1,0.2-0.2,0.2-0.3    c0.4-1.2-0.1-2.4-0.8-3.5c-0.2-0.3-0.4-0.5-0.6-0.6c-0.3-0.1-0.7,0.1-0.6,0.4"/>
		<g>
			<path class="st2" d="M129.4,220.7c-0.2,1.4-0.3,3,0.8,4.1c0.8,0.8,2.3,1.1,2.8-0.2c0.6-1.4-0.1-3.1-0.9-4.2     c-0.6-0.8-2.1-1.1-2.3,0.1c-0.1,0.8,1.1,1.1,1.2,0.3c-0.1,0.3,0.4,0.8,0.6,1.2c0.2,0.5,0.7,1.7,0.1,2c-1.3,0.5-1.1-2.4-1-3     C130.7,220.2,129.5,219.9,129.4,220.7L129.4,220.7z"/>
		</g>
	</g>
	<g>
		<path class="st5" d="M133.2,228.1c-0.1,0.7-0.1,1.3,0,2c0.1,0.6,0.5,1.3,1.1,1.6c0.2,0.1,0.3,0.1,0.5,0.1c0.3,0,0.6-0.2,0.8-0.5    c0.4-0.6,0.3-1.5,0-2.1c-0.4-0.7-1-1.1-1.6-1.5c-0.2-0.1-0.3-0.2-0.5-0.1s-0.3,0.3-0.2,0.4"/>
		<g>
			<path class="st2" d="M132.6,228.1c-0.1,1.4-0.2,3.1,1.1,3.9c1.2,0.8,2.4,0,2.7-1.3c0.2-1.3-0.5-2.4-1.5-3.2     c-0.4-0.3-1.1-0.8-1.7-0.7C132.8,227,132.5,227.6,132.6,228.1c0.4,0.7,1.6,0.4,1.3-0.4c0-0.1,0-0.1-0.1-0.2c0,0.2,0,0.3-0.1,0.5     c-0.2,0.1-0.2,0.1,0,0.2c0.1,0.1,0.2,0.1,0.3,0.2c0.2,0.2,0.4,0.3,0.6,0.5c0.4,0.4,0.6,1,0.5,1.5c-0.2,1.1-1.1,0.3-1.3-0.3     s-0.1-1.4,0-2C133.9,227.3,132.7,227.3,132.6,228.1L132.6,228.1z"/>
		</g>
	</g>
	<g>
		<path class="st5" d="M136.3,235c0,1.1,0.5,2.2,1.4,2.9c0.3,0.2,0.7,0.4,1.1,0.3c0.5-0.2,0.6-0.9,0.4-1.5c-0.2-0.7-0.5-1.3-1-1.8    c-0.5-0.4-1.3-0.6-1.9-0.3"/>
		<g>
			<path class="st2" d="M135.7,235c0,1.2,0.5,2.3,1.3,3.1c0.8,0.7,2.2,1.1,2.7-0.2c0.4-1-0.1-2.2-0.7-3c-0.8-1-2-1.3-3.1-0.8     c-0.7,0.3-0.1,1.4,0.6,1.1c0.6-0.3,1.3,0.1,1.6,0.6c0.2,0.3,0.6,1,0.5,1.4c0,0.1,0,0.2-0.1,0.2c-0.2,0-0.4,0-0.6-0.2     c-0.2-0.2-0.4-0.4-0.6-0.6c-0.3-0.5-0.5-1.1-0.5-1.6C137,234.2,135.7,234.2,135.7,235L135.7,235z"/>
		</g>
	</g>
	<g>
		<path class="st5" d="M140.8,240.9c0.1,1.6,1,3,2.4,3.8c0.2,0.1,0.3,0.2,0.5,0.2c0.5,0,0.8-0.5,0.8-1c0-0.6-0.2-1.1-0.5-1.6    c-0.3-0.6-0.7-1.2-1.2-1.5c-0.5-0.4-1.3-0.5-1.9-0.1"/>
		<g>
			<path class="st2" d="M140.2,240.9c0.1,1.3,0.7,2.6,1.6,3.5c0.8,0.8,2.2,1.7,3,0.5s0-2.8-0.8-3.8c-0.8-1.1-2.1-1.7-3.4-1     c-0.7,0.4-0.1,1.4,0.6,1.1c0.9-0.5,1.7,0.5,2.1,1.2c0.2,0.4,1,1.9,0.2,1.9c-0.5,0-1.1-0.9-1.4-1.3c-0.4-0.6-0.6-1.3-0.7-2     C141.4,240.1,140.1,240.1,140.2,240.9L140.2,240.9z"/>
		</g>
	</g>
	<g>
		<path class="st5" d="M145.6,247.2c-0.1,0.1,0,0.3,0,0.5c0.3,0.7,0.6,1.4,1.1,1.9c0.5,0.6,1.2,1,1.9,0.9c0.2,0,0.3,0,0.4-0.1    c0.2-0.1,0.4-0.3,0.4-0.6c0.1-0.5-0.1-0.9-0.3-1.3s-0.7-0.6-1.1-0.9c-0.6-0.3-1.1-0.6-1.8-0.9c-0.2-0.1-0.3-0.1-0.5-0.1    s-0.4,0.2-0.4,0.3"/>
		<g>
			<path class="st2" d="M145,247.1c-0.2,1.2,1,2.9,2,3.6c1,0.7,2.8,0.8,3.1-0.6c0.3-1.3-0.8-2.4-1.8-3c-0.9-0.5-2.9-1.7-3.4-0.2     c-0.3,0.8,0.9,1.1,1.2,0.3c-0.2,0.4,3.4,1.2,2.8,2.5c-0.5,1.2-2.8-1.6-2.7-2.3C146.3,246.6,145.1,246.3,145,247.1L145,247.1z"/>
		</g>
	</g>
	<g>
		<path class="st5" d="M151.6,253.2c-0.1,0.6,0,1.2,0.4,1.7s0.9,0.8,1.4,1.1c0.2,0.1,0.5,0.2,0.7,0.1c0.3-0.1,0.5-0.5,0.4-0.9    s-0.3-0.6-0.6-0.9c-0.6-0.6-1.2-1-1.9-1.3C151.9,252.9,151.6,252.9,151.6,253.2"/>
		<g>
			<path class="st2" d="M151,253c-0.2,1.2,0.3,2.3,1.3,3.1c0.8,0.6,2.3,1.2,2.8-0.1c0.4-1.1-0.6-2-1.4-2.6c-0.7-0.5-2.1-1.5-2.7-0.5     c-0.4,0.7,0.7,1.3,1.1,0.6c-0.4,0.1-0.4,0.2-0.2,0.2c0.1,0.1,0.2,0.1,0.3,0.2c0.2,0.1,0.5,0.3,0.7,0.4c0.3,0.2,0.9,0.7,1,1.1     c0,0.3-0.2,0.2-0.4,0.1c-0.3-0.1-0.5-0.3-0.7-0.5c-0.4-0.4-0.7-0.9-0.6-1.6C152.4,252.5,151.2,252.2,151,253L151,253z"/>
		</g>
	</g>
	<g>
		<path class="st5" d="M158.7,132.3c0.4,1.4,1.4,2.4,2.5,2.8c0.2,0.1,0.4,0.1,0.6-0.1c0.3-0.3,0.1-0.8-0.2-1.2    c-0.8-1-1.9-1.7-3.1-1.8"/>
		<g>
			<path class="st2" d="M158.1,132.5c0.3,1,0.9,1.9,1.8,2.6c0.7,0.5,1.9,1.2,2.5,0.3c0.6-0.8-0.2-1.9-0.8-2.5     c-0.8-0.8-1.9-1.3-3-1.4c-0.8-0.1-0.8,1.2,0,1.2c0.6,0.1,1.1,0.3,1.6,0.6c0.3,0.2,0.5,0.4,0.7,0.7c0.1,0.1,0.2,0.2,0.3,0.3     l0.1,0.1c0,0.2,0,0.2,0.1,0.1l-0.5-0.3c-0.2-0.1-0.5-0.3-0.6-0.5c-0.4-0.4-0.7-1-0.9-1.6C159,131.4,157.8,131.7,158.1,132.5     L158.1,132.5z"/>
		</g>
	</g>
	<g>
		<path class="st5" d="M166.3,133.7c-0.4,0-0.9,0-1.2,0.2c-0.5,0.2-0.9,0.7-0.7,1.1c0.1,0.2,0.2,0.3,0.4,0.4    c0.7,0.4,1.6,0.1,2.3-0.3c0.2-0.1,0.3-0.2,0.3-0.4c0-0.1,0-0.2-0.1-0.3c-0.3-0.5-0.9-0.8-1.5-0.7"/>
		<g>
			<path class="st2" d="M166.3,133.1c-1,0-2.3,0.4-2.5,1.4c-0.3,1.1,0.9,1.7,1.8,1.7c0.8,0,2.5-0.5,2.5-1.5c0.1-1.1-1.3-1.7-2.2-1.6     c-0.8,0.1-0.8,1.3,0,1.2c0.5-0.1,0.6,0.1,1,0.4c0-0.2,0-0.3-0.1-0.2s-0.2,0.1-0.3,0.1c-0.2,0.1-0.4,0.2-0.6,0.2     c-0.3,0-1,0.1-0.7-0.3c0.2-0.3,0.9-0.3,1.2-0.3C167.1,134.4,167.1,133.1,166.3,133.1L166.3,133.1z"/>
		</g>
	</g>
	<g>
		<path class="st5" d="M171.5,132.4c-0.5,0.1-1,0.3-1.4,0.6s-0.7,0.8-0.5,1.3c0,0.1,0.1,0.2,0.1,0.2c0.1,0,0.1,0,0.2,0    c1,0,1.9-0.6,2.7-1.3c0.2-0.2,0.3-0.3,0.4-0.5c0-0.4-0.3-0.7-0.7-0.7s-0.7,0.1-1,0.3"/>
		<g>
			<path class="st2" d="M171.3,131.8c-1.1,0.3-2.4,0.8-2.4,2.1c-0.1,1.4,1.3,1.3,2.3,0.9c0.8-0.3,2.3-1.2,2.3-2.3     c0-0.5-0.4-1-0.9-1.1c-0.6-0.2-1.2,0-1.7,0.3c-0.7,0.4-0.1,1.4,0.6,1.1c0.1,0,0.6-0.3,0.7-0.2c0,0-0.3,0.2-0.3,0.3     c-0.4,0.3-0.8,0.6-1.3,0.8c-0.1,0-0.2,0.1-0.3,0.1c-0.2,0-0.3,0-0.2,0.2c0,0.2,0.1,0.2,0-0.1c0-0.1,0.1-0.2,0.2-0.3     c0.3-0.4,0.9-0.5,1.3-0.6C172.4,132.8,172.1,131.6,171.3,131.8L171.3,131.8z"/>
		</g>
	</g>
	<g>
		<path class="st5" d="M174.2,135.5c-0.3,0.3-0.6,0.7-0.9,1.1c-0.4,0.6-0.9,1.2-0.8,1.9c0,0.2,0.1,0.5,0.2,0.6    c0.3,0.3,0.7,0.3,1,0.1s0.5-0.5,0.7-0.8c0.3-0.5,0.4-1.1,0.5-1.6c0-0.4,0-0.9-0.4-1"/>
		<g>
			<path class="st2" d="M173.8,135c-0.8,0.8-1.8,1.8-1.9,3c-0.1,1,0.5,2,1.6,1.8c1.1-0.1,1.6-1.3,1.9-2.2c0.3-0.8,0.5-2.1-0.5-2.6     c-0.7-0.4-1.4,0.7-0.6,1.1c0.5,0.2-0.4,2.6-1,2.3c-0.7-0.4,1.1-2.3,1.4-2.6C175.2,135.3,174.3,134.4,173.8,135L173.8,135z"/>
		</g>
	</g>
	<g>
		<path class="st5" d="M171.7,143c-0.7,0.6-1.2,1.3-1.4,2.2c-0.1,0.3-0.1,0.6,0,0.9c0.1,0.2,0.3,0.3,0.4,0.3c0.6,0.3,1.4,0,1.8-0.5    c0.4-0.5,0.4-1.2,0.4-1.9c0-0.3-0.1-0.7-0.3-0.9c-0.2-0.3-0.5-0.5-0.8-0.4"/>
		<g>
			<path class="st2" d="M171.3,142.5c-0.8,0.7-1.8,2-1.7,3.2s1.4,1.6,2.4,1.2c1.1-0.4,1.6-1.4,1.6-2.6c0-1-0.4-2.5-1.7-2.4     c-0.8,0.1-0.8,1.3,0,1.2c0.7-0.1,0.7,2.5-0.5,2.5c-1.3,0,0.4-2.1,0.8-2.4C172.8,142.9,171.9,142,171.3,142.5L171.3,142.5z"/>
		</g>
	</g>
	<g>
		<path class="st5" d="M169.6,150.3c-0.7,0.8-1.1,1.8-1.2,2.8c0,0.2,0,0.5,0.1,0.7s0.3,0.3,0.5,0.4c0.6,0.2,1.2-0.2,1.5-0.7    s0.4-1.1,0.4-1.7c0-0.3,0.1-0.7,0-1c0-0.3-0.1-0.6-0.4-0.7c-0.2-0.2-0.6-0.1-0.7,0.2"/>
		<g>
			<path class="st2" d="M169.1,149.9c-0.8,1-1.6,2.5-1.4,3.8c0.2,1.4,1.9,1.4,2.8,0.6c0.9-0.8,1.2-2.6,1-3.8     c-0.2-1.1-1.5-1.7-2.2-0.7c-0.5,0.7,0.6,1.3,1.1,0.6c-0.2,0.3-0.1,1.1-0.1,1.5c-0.1,0.5-0.2,1.3-0.8,1.6     c-0.8,0.4-0.4-0.9-0.3-1.3c0.2-0.6,0.5-1.1,0.8-1.5C170.5,150.1,169.6,149.3,169.1,149.9L169.1,149.9z"/>
		</g>
	</g>
	<g>
		<path class="st5" d="M168,157.5c-0.8,1.1-1,2.5-0.8,3.8c0.1,0.3,0.2,0.6,0.4,0.9s0.5,0.4,0.8,0.4c0.6,0,0.9-0.6,1.1-1.2    c0.3-0.9,0.2-1.9,0-2.8c-0.1-0.4-0.3-0.7-0.6-1C168.7,157.5,168.2,157.4,168,157.5"/>
		<g>
			<path class="st2" d="M167.5,157.2c-0.9,1.3-1.2,3-0.8,4.6c0.3,1.1,1.6,2,2.6,1.1c1.8-1.4,1.2-7.1-1.7-5.8     c-0.7,0.3-0.1,1.4,0.6,1.1c0.7-0.3,0.9,1.6,0.9,1.9c0,0.4,0,0.8-0.2,1.2c-0.2,0.5-0.2,0.7-0.7,0.4c-1.2-0.7-0.3-2.9,0.3-3.8     C169,157.2,167.9,156.5,167.5,157.2L167.5,157.2z"/>
		</g>
	</g>
	<g>
		<path class="st5" d="M167,166.1c-0.5,0.6-0.9,1.3-1.1,2.1c-0.1,0.4-0.2,0.8-0.2,1.2s0.2,0.8,0.6,1c0.4,0.2,0.9,0.2,1.3-0.1    c0.4-0.3,0.6-0.7,0.8-1.2c0.3-0.8,0.2-1.8-0.2-2.6c-0.1-0.2-0.3-0.5-0.5-0.6C167.4,165.8,167.1,165.8,167,166.1"/>
		<g>
			<path class="st2" d="M166.6,165.6c-0.8,1.1-1.7,2.6-1.5,4c0.2,1.3,1.6,1.9,2.7,1.2c1.2-0.7,1.5-2.4,1.2-3.7     c-0.2-1-1.2-2.7-2.4-1.7c-0.6,0.5,0,1.6,0.6,1.1c0.4-0.3,0.6,1.4,0.6,1.6c0,0.6-0.2,1.6-0.9,1.8c-1.6,0.4,0.1-2.9,0.4-3.4     C167.9,165.9,167,165,166.6,165.6L166.6,165.6z"/>
		</g>
	</g>
	<g>
		<path class="st5" d="M166.2,173.8c-0.7,1.3-0.8,2.9-0.2,4.2c0,0.1,0.1,0.2,0.2,0.3c0.1,0.1,0.3,0.2,0.5,0.2c0.6,0,1.1-0.5,1.3-1    s0.2-1.1,0.1-1.7c-0.1-0.5-0.2-1-0.4-1.5c-0.1-0.2-0.2-0.4-0.4-0.6c-0.2-0.2-0.5-0.2-0.7-0.1"/>
		<g>
			<path class="st2" d="M165.6,173.5c-0.7,1.4-0.9,2.9-0.4,4.4c0.4,1.1,1.4,1.6,2.4,0.9c1.2-0.7,1.2-2.2,0.9-3.4     c-0.2-1.1-0.8-2.7-2.2-2.3c-0.8,0.2-0.4,1.5,0.3,1.2c0.3-0.1,0.6,1.3,0.7,1.5c0.1,0.3,0.2,2.4-0.8,2c-0.3-0.1-0.4-1.4-0.4-1.6     c0-0.7,0.2-1.4,0.5-2.1C167.1,173.4,166,172.7,165.6,173.5L165.6,173.5z"/>
		</g>
	</g>
	<g>
		<path class="st5" d="M166.6,181.6c-0.3,1-0.5,2-0.4,3c0,0.3,0,0.7,0.2,1c0.1,0.3,0.4,0.6,0.7,0.7c0.4,0.1,0.8,0,1.1-0.3    s0.4-0.7,0.5-1.1C168.8,183.5,167.9,182.1,166.6,181.6"/>
		<g>
			<path class="st2" d="M166,181.4c-0.4,1.3-0.8,3-0.3,4.3c0.4,1,1.4,1.5,2.4,1c2.5-1.2,0.8-4.9-1.1-5.7c-0.7-0.3-1.4,0.8-0.6,1.1     c0.6,0.2,1.1,0.6,1.4,1.2c0.3,0.4,0.6,1.7,0.1,2.1c-0.3,0.1-0.5,0.1-0.8,0.2c-0.2-0.2-0.2-0.5-0.3-0.8c0-0.3,0-0.6,0-0.9     c0-0.7,0.2-1.4,0.4-2.1C167.4,181,166.2,180.6,166,181.4L166,181.4z"/>
		</g>
	</g>
	<g>
		<path class="st5" d="M167.1,190.1c-0.3,0.5-0.6,1.1-0.7,1.7c-0.2,0.7-0.1,1.7,0.5,2.1c0.6,0.3,1.4,0.1,1.8-0.5    c0.4-0.5,0.5-1.3,0.4-1.9c-0.1-0.7-0.3-1.3-0.8-1.8c-0.3-0.2-0.7-0.3-1-0.1"/>
		<g>
			<path class="st2" d="M166.6,189.8c-0.6,1.1-1.2,2.5-0.7,3.8c0.5,1.1,1.9,1.4,2.9,0.6c1-0.8,1.1-2.3,0.8-3.5     c-0.3-1-1.4-2.4-2.6-1.6c-0.7,0.4,0,1.5,0.6,1.1c0.5-0.3,0.8,1.1,0.8,1.4c0.1,0.6,0,1.5-0.6,1.7c-0.7,0.3-1-0.3-0.9-0.9     c0-0.7,0.3-1.4,0.7-2C168.1,189.7,167,189.1,166.6,189.8L166.6,189.8z"/>
		</g>
	</g>
	<g>
		<path class="st5" d="M168.8,197.9c-0.2,0-0.4,0.2-0.4,0.4c-0.3,0.7-0.4,1.4-0.5,2.1c0,0.5,0,1,0.2,1.4s0.6,0.8,1,0.9    c0.5,0.1,1-0.2,1.3-0.6c0.3-0.4,0.4-0.9,0.3-1.4c0-1.1-0.6-2.1-1.4-2.8C169.1,197.8,168.8,197.7,168.8,197.9"/>
		<g>
			<path class="st2" d="M168.6,197.3c-1.3,0.4-1.5,2.6-1.4,3.7c0.1,1.3,1.2,2.8,2.7,2.2C173,202,170.1,196.1,168.6,197.3     c-0.7,0.5-0.1,1.6,0.5,1.1c-0.1,0.1,0.7,1.1,0.8,1.3c0.2,0.5,0.5,1.8-0.1,2.1c-0.3,0-0.6,0-0.9,0c-0.2-0.2-0.3-0.4-0.3-0.7     c-0.1-0.3,0-0.5,0-0.8s0.2-1.9,0.5-2C169.7,198.2,169.4,197,168.6,197.3L168.6,197.3z"/>
		</g>
	</g>
	<g>
		<path class="st5" d="M169.5,206.1c0,0.4,0,0.9-0.1,1.3c0,0.6-0.1,1.2,0.1,1.7s0.7,1,1.2,1.1c0.7,0,1.3-0.6,1.4-1.2s-0.1-1.4-0.4-2    c-0.2-0.5-0.5-0.9-0.8-1.2c-0.2-0.2-0.5-0.4-0.8-0.4s-0.6,0.4-0.4,0.7"/>
		<g>
			<path class="st2" d="M168.8,206.1c-0.1,1.4-0.4,3.3,0.9,4.3c1.1,0.8,2.5,0.2,2.9-1c0.5-1.3-0.3-3.2-1.3-4.1     c-0.9-0.9-2.6-0.6-2.3,0.9c0.1,0.8,1.3,0.5,1.2-0.3c0,0.2,0.6,0.7,0.7,0.9c0.1,0.2,0.2,0.4,0.3,0.5c0.3,0.6,0.7,2-0.3,2.2     c-1.4,0.3-0.9-2.5-0.9-3.3C170.1,205.3,168.9,205.3,168.8,206.1L168.8,206.1z"/>
		</g>
	</g>
	<g>
		<path class="st5" d="M171.4,214c-0.3,1-0.1,2.3,0.6,3c0.2,0.2,0.5,0.4,0.8,0.4c0.5,0,0.9-0.5,1-1s-0.2-1-0.4-1.5s-0.5-0.9-0.8-1.4    c-0.2-0.2-0.3-0.5-0.6-0.5c-0.2,0-0.4,0.2-0.5,0.4S171.4,213.8,171.4,214"/>
		<g>
			<path class="st2" d="M170.8,213.8c-0.3,1.2-0.2,2.7,0.8,3.6c0.9,0.9,2.4,0.6,2.7-0.7c0.2-0.6,0-1.3-0.3-1.9     c-0.3-0.7-0.7-1.5-1.2-2.1c-0.4-0.4-0.9-0.6-1.4-0.3c-0.6,0.3-0.7,0.9-0.8,1.5c-0.1,0.8,1.2,0.8,1.2,0c0.1-0.5,0.1-0.2,0.2,0     c0.2,0.2,0.3,0.5,0.4,0.7c0.2,0.3,0.9,1.4,0.6,1.8c-0.2,0.3-0.7,0.1-0.9-0.1c-0.1-0.2-0.2-0.4-0.3-0.6c-0.1-0.5-0.1-1,0-1.5     C172.1,213.4,170.9,213.1,170.8,213.8L170.8,213.8z"/>
		</g>
	</g>
	<g>
		<path class="st5" d="M174.1,220.7c-0.3,0.5-0.4,1-0.5,1.6s0,1.1,0.2,1.6c0.3,0.5,0.8,0.9,1.3,0.8c0.7-0.1,1.2-0.7,1.3-1.4    s-0.1-1.4-0.4-2c-0.2-0.5-0.5-1-1-1.2c-0.5-0.1-1.1,0.3-1.1,0.9"/>
		<g>
			<path class="st2" d="M173.5,220.3c-0.6,1.2-1,3-0.1,4.2s2.6,1,3.3-0.3c0.7-1.2,0.2-3.3-0.8-4.3s-2.5-0.3-2.6,1     c-0.1,0.8,1.2,0.8,1.2,0c0.3-0.2,0.5-0.1,0.6,0.1c0.1,0.1,0.1,0.2,0.2,0.4c0.1,0.2,0.2,0.4,0.2,0.7c0.2,0.6,0.3,1.9-0.6,1.9     c-1.4,0-0.8-2.3-0.4-3.1C175,220.3,173.9,219.6,173.5,220.3L173.5,220.3z"/>
		</g>
	</g>
	<g>
		<path class="st5" d="M175.7,228.7c0,0.9,0.1,1.8,0.5,2.5c0.2,0.4,0.4,0.7,0.8,0.9c0.5,0.2,1.1-0.1,1.3-0.6c0.3-0.5,0.2-1,0-1.5    s-0.6-0.9-0.9-1.2c-0.3-0.2-0.5-0.5-0.9-0.5S175.8,228.4,175.7,228.7"/>
		<g>
			<path class="st2" d="M175,228.7c0,1.2,0.2,2.9,1.3,3.7c0.9,0.8,2.3,0.3,2.7-0.8c0.5-1.2-0.2-2.4-1.1-3.2c-0.8-0.7-2.1-1.1-2.7,0     c-0.4,0.7,0.7,1.3,1.1,0.6c0.2-0.4,1.1,0.5,1.2,0.7c0.3,0.4,0.7,1.1,0.2,1.6c-1,1-1.5-2.2-1.4-2.7     C176.3,227.9,175.1,227.9,175,228.7L175,228.7z"/>
		</g>
	</g>
	<g>
		<path class="st5" d="M178.7,235.9c-0.2,1-0.1,2.1,0.3,3.1c0.1,0.4,0.3,0.7,0.6,1s0.7,0.4,1.1,0.4c0.6-0.1,1-0.7,1-1.3    c0.2-1.2-0.7-2.3-1.6-3.1c-0.2-0.2-0.4-0.4-0.7-0.4S178.8,235.7,178.7,235.9"/>
		<g>
			<path class="st2" d="M178.1,235.7c-0.2,1.5-0.1,3.4,1,4.5c0.9,1,2.4,0.8,3-0.4c0.6-1.3,0-2.7-0.9-3.7c-0.7-0.8-2.2-2-3-0.6     c-0.4,0.7,0.7,1.3,1.1,0.6c0.1-0.2,1.2,1.1,1.3,1.2c0.3,0.5,0.8,1.4,0.3,1.9c-0.3,0.4-0.9,0.3-1.2-0.2c-0.2-0.3-0.3-0.6-0.3-0.9     c-0.2-0.7-0.2-1.5-0.1-2.2C179.4,235.3,178.2,235,178.1,235.7L178.1,235.7z"/>
		</g>
	</g>
	<g>
		<path class="st5" d="M181.8,243.4c-0.2,0.9-0.1,2,0.2,2.9c0.1,0.3,0.3,0.7,0.6,0.9s0.6,0.4,1,0.4c0.4-0.1,0.7-0.4,0.9-0.7    s0.2-0.8,0.1-1.2c-0.1-1-0.7-1.9-1.5-2.5c-0.2-0.2-0.4-0.3-0.7-0.3C182.2,242.9,181.9,243.1,181.8,243.4"/>
		<g>
			<path class="st2" d="M181.2,243.2c-0.3,1.4-0.2,3.2,0.8,4.3c0.9,1,2.4,0.8,3-0.5c0.6-1.2-0.1-2.8-0.9-3.8     C183.4,242.4,181.8,241.6,181.2,243.2c-0.2,0.7,1.1,1,1.3,0.3c0,0,1,1,1,1.1c0.3,0.5,0.5,1.2,0.4,1.8c-0.1,0.5-0.6,0.6-1,0.2     c-0.2-0.2-0.3-0.5-0.4-0.8c-0.2-0.7-0.2-1.5-0.1-2.2C182.6,242.8,181.4,242.5,181.2,243.2L181.2,243.2z"/>
		</g>
	</g>
	<g>
		<path class="st5" d="M185.2,250.8c0,0.8,0.1,1.6,0.5,2.3s1.1,1.2,1.9,1.2c0.2,0,0.4,0,0.6-0.1c0.5-0.2,0.7-0.9,0.5-1.4    s-0.5-0.9-0.9-1.3c-0.5-0.4-1-0.7-1.6-1c-0.3-0.1-0.9-0.2-1,0.2"/>
		<g>
			<path class="st2" d="M184.5,250.8c0,1.4,0.3,2.8,1.5,3.6c1,0.7,2.6,0.7,3.1-0.5c0.6-1.3-0.3-2.5-1.3-3.2     c-0.8-0.6-2.4-1.5-3.1-0.3c-0.4,0.7,0.7,1.3,1.1,0.6c0,0,0.4,0.2,0.6,0.2c0.3,0.1,0.6,0.3,0.8,0.5c0.4,0.3,1.3,1.2,0.7,1.7     c-0.5,0.5-1.4-0.2-1.7-0.7c-0.4-0.6-0.5-1.4-0.4-2.1C185.8,250,184.6,250,184.5,250.8L184.5,250.8z"/>
		</g>
	</g>
	<g>
		<path class="st5" d="M188.5,256.5c-0.3,1.3,0.1,2.7,1.1,3.5c0.1,0.1,0.2,0.2,0.3,0.2s0.3,0,0.4,0c0.5-0.2,0.9-0.7,0.9-1.3    s-0.2-1.1-0.6-1.5c-0.4-0.4-0.8-0.8-1.3-1.1c-0.2-0.1-0.4-0.3-0.6-0.3c-0.2,0-0.5,0.1-0.5,0.3"/>
		<g>
			<path class="st2" d="M187.9,256.3c-0.2,1.3,0,2.6,0.8,3.7c0.8,1,2,1.2,2.7,0c0.8-1.2,0.1-2.6-0.8-3.5c-0.7-0.6-2.3-1.9-2.9-0.5     c-0.3,0.7,0.7,1.4,1.1,0.6c0,0.1,1,0.9,1.2,1c0.2,0.3,0.5,0.6,0.5,0.9c0.1,0.2,0,1.1-0.4,1.1s-0.8-1-0.9-1.3     c-0.2-0.6-0.2-1.1-0.1-1.7C189.2,255.9,188,255.5,187.9,256.3L187.9,256.3z"/>
		</g>
	</g>
	<g>
		<path class="st5" d="M196.9,135.5c-0.1,0.7-0.2,1.3-0.3,2s-0.1,1.3,0.2,1.9c0.3,0.6,1,1,1.6,0.8s0.8-0.9,0.9-1.4    c0.1-1.3-0.6-2.7-1.7-3.4c-0.1-0.1-0.3-0.2-0.4-0.1c-0.2,0-0.3,0.2-0.2,0.3"/>
		<g>
			<path class="st2" d="M196.3,135.3c-0.3,1.4-0.8,3.5,0.2,4.8c0.9,1.1,2.5,1,3.1-0.4c0.6-1.3,0.1-2.9-0.7-4c-0.4-0.5-1-1.1-1.6-1.1     c-0.6-0.1-1,0.4-1,0.9c0,0.8,1.2,0.8,1.2,0c0-0.1,0-0.1,0-0.2c-0.1,0.2-0.2,0.4-0.3,0.5c0.2-0.1,1,1,1.1,1.2     c0.3,0.5,0.5,1.4,0.2,2c-0.3,0.7-1,0.6-1.3-0.1c-0.1-0.3-0.1-0.8-0.1-1.1c0-0.7,0.2-1.5,0.3-2.2     C197.7,134.9,196.5,134.5,196.3,135.3L196.3,135.3z"/>
		</g>
	</g>
	<g>
		<path class="st5" d="M198.9,144.2c-0.4,1.7,0.2,3.5,1.5,4.6c0.3,0.3,0.8,0.6,1.2,0.3c0.1-0.1,0.2-0.3,0.2-0.5    c0.3-1.4-0.5-2.8-1.3-4c-0.2-0.2-0.3-0.5-0.6-0.6s-0.6-0.2-0.8,0"/>
		<g>
			<path class="st2" d="M198.3,144.1c-0.3,1.5-0.1,2.9,0.8,4.2c0.5,0.8,1.7,2.2,2.8,1.4s0.5-2.8,0.1-3.8c-0.5-1.1-1.5-3.1-3.1-2.5     c-0.7,0.3-0.4,1.5,0.3,1.2c0.6-0.2,1.3,1.2,1.5,1.6c0.2,0.3,1.1,2.6,0,2.1c-0.5-0.2-0.9-1.3-1.1-1.7c-0.2-0.7-0.3-1.4-0.1-2.2     S198.5,143.3,198.3,144.1L198.3,144.1z"/>
		</g>
	</g>
	<g>
		<path class="st5" d="M202.6,153.5c0,1,0.2,2.1,0.6,3.1c0.5,1.1,1.3,2.3,2.6,2.4c0.3,0,0.5,0,0.8-0.1c0.3-0.2,0.5-0.5,0.5-0.9    c0-0.3-0.1-0.7-0.2-1c-0.4-1.1-1.3-2-2.1-2.8c-0.3-0.3-0.6-0.6-0.9-0.7c-0.3-0.2-0.8-0.2-1.1-0.1"/>
		<g>
			<path class="st2" d="M201.9,153.5c0.1,1.7,0.5,3.6,1.7,5c0.8,0.9,2.5,1.7,3.5,0.7c1.1-1.1,0.1-3-0.7-4c-0.9-1.2-2.2-2.9-3.9-2.4     c-0.8,0.2-0.4,1.4,0.3,1.2c0.9-0.3,1.8,1.1,2.4,1.7c0.4,0.5,2,2.7,0.5,2.7c-2,0-2.6-3.5-2.6-4.8     C203.1,152.7,201.9,152.7,201.9,153.5L201.9,153.5z"/>
		</g>
	</g>
	<g>
		<path class="st5" d="M209.3,161.3c0,0.6,0.2,1.2,0.6,1.7c0.4,0.5,0.9,0.8,1.4,1.1c0.7,0.4,1.5,0.7,2.3,0.4    c0.2-0.1,0.4-0.2,0.6-0.3c0.3-0.4,0.2-1-0.1-1.5c-0.3-0.4-0.8-0.6-1.3-0.9C211.7,161.3,210.5,160.8,209.3,161.3"/>
		<g>
			<path class="st2" d="M208.6,161.3c0,1.5,1,2.7,2.3,3.4c1,0.6,2.7,1,3.6,0c1-1.1,0.1-2.4-1-3c-1.3-0.8-3-1.4-4.5-1     c-0.8,0.2-0.4,1.4,0.3,1.2c0.9-0.2,1.6,0,2.4,0.3c0.4,0.2,2.7,1.1,1.5,1.8c-0.6,0.3-1.6-0.2-2.1-0.5c-0.8-0.5-1.4-1.1-1.4-2.1     C209.9,160.4,208.6,160.4,208.6,161.3L208.6,161.3z"/>
		</g>
	</g>
	<g>
		<path class="st5" d="M220.5,165.8c-0.5-0.2-1-0.1-1.5,0c-0.7,0.2-1.5,0.7-1.4,1.5c0,0.7,0.8,1.2,1.5,1.4c0.8,0.2,1.6,0.2,2.3-0.1    c0.1-0.1,0.3-0.2,0.4-0.3c0.1-0.1,0.1-0.3,0.1-0.4c0.1-0.5,0.1-1-0.2-1.4C221.5,166.1,221.1,165.7,220.5,165.8"/>
		<g>
			<path class="st2" d="M220.7,165.2c-1.3-0.3-3.1,0.1-3.6,1.5c-0.5,1.3,0.7,2.4,1.8,2.7s3.1,0.3,3.6-1.1     C222.9,166.9,222.2,165.2,220.7,165.2c-0.9-0.1-0.9,1.2-0.1,1.2c1,0,1,1.6,0.1,1.8c-0.6,0.1-1.2,0.1-1.7-0.1     c-0.6-0.2-1.1-0.7-0.6-1.3c0.4-0.5,1.3-0.6,1.9-0.4C221.1,166.6,221.4,165.4,220.7,165.2L220.7,165.2z"/>
		</g>
	</g>
	<g>
		<path class="st5" d="M228,166.7c-0.5,0-1,0-1.6,0.1c-0.5,0.1-1,0.4-1.3,0.8s-0.3,1.1,0.1,1.4c0.2,0.2,0.4,0.3,0.6,0.4    c0.6,0.2,1.3,0.3,1.9,0.1s1.2-0.6,1.4-1.2c0.2-0.6,0.1-1.4-0.4-1.7c-0.2-0.1-0.5-0.2-0.5,0"/>
		<g>
			<path class="st2" d="M228,166c-1.4,0-3.2,0.2-3.6,1.8c-0.4,1.6,1.4,2.4,2.7,2.4c1.4,0,2.8-0.9,2.8-2.4c0-0.9-1.2-2.8-2.1-1.6     c-0.5,0.6,0.4,1.5,0.9,0.9c-0.2,0.1-0.3,0.2,0,0.4c0,0.1,0,0.2,0,0.3c0,0.3-0.1,0.6-0.3,0.8c-0.5,0.5-1.3,0.5-1.9,0.4     c-0.7-0.2-1.2-0.7-0.5-1.3c0.6-0.4,1.3-0.3,2-0.3C228.8,167.3,228.8,166.1,228,166L228,166z"/>
		</g>
	</g>
	<g>
		<path class="st5" d="M235.3,165.3c-0.6,0.1-1.2,0.2-1.7,0.5s-0.8,1-0.6,1.6c0.2,0.5,0.8,0.8,1.3,0.8s1.1-0.3,1.5-0.5    c0.5-0.3,0.9-0.7,1.3-1.1c0.2-0.2,0.4-0.5,0.5-0.8s0-0.6-0.2-0.8c-0.3-0.2-0.7-0.2-1-0.1s-0.6,0.3-1,0.4"/>
		<g>
			<path class="st2" d="M235.1,164.7c-1.3,0.2-3.1,0.9-2.9,2.6c0.2,1.5,1.8,1.8,3,1.4c1.1-0.4,2.9-1.7,2.9-3c0-0.6-0.3-1.1-0.8-1.3     C236.5,164.1,235.9,164.6,235.1,164.7c-0.7,0.3-0.3,1.5,0.4,1.3c0.2-0.1,0.4-0.2,0.6-0.2c0.4-0.1,0.9-0.1,0.4,0.5     c-0.4,0.4-0.9,0.8-1.4,1.1c-0.4,0.2-2.1,0.7-1.6-0.5c0.3-0.7,1.3-0.8,1.9-0.8C236.3,165.8,235.9,164.6,235.1,164.7L235.1,164.7z"/>
		</g>
	</g>
	<g>
		<path class="st5" d="M242.4,159.7c-0.8,0.5-1.4,1.2-1.7,2.1c-0.1,0.3-0.2,0.6-0.2,0.9s0.3,0.6,0.6,0.6c0.2,0,0.4,0,0.5-0.1    c0.9-0.4,1.6-1.1,2-1.9c0.1-0.3,0.3-0.6,0.2-0.9c0-0.4-0.3-0.7-0.7-0.8s-0.8,0.1-1,0.4"/>
		<g>
			<path class="st2" d="M242.1,159.2c-1.1,0.7-2.3,2-2.2,3.4c0,0.6,0.3,1.1,0.9,1.3c0.6,0.2,1.3-0.1,1.8-0.4c1-0.6,2.2-2,1.9-3.2     c-0.3-1.3-1.9-1.7-2.8-0.7c-0.5,0.6,0.3,1.5,0.9,0.9c0.3-0.3,0.7-0.2,0.7,0.3c0,0.2-0.2,0.5-0.3,0.7c-0.3,0.5-0.7,0.9-1.2,1.1     c-0.9,0.5-0.4-0.5-0.2-1c0.3-0.5,0.7-0.9,1.2-1.2C243.4,159.8,242.8,158.7,242.1,159.2L242.1,159.2z"/>
		</g>
	</g>
	<g>
		<path class="st5" d="M246.8,152.7c-0.9,0.8-1.4,2.1-1.2,3.3c0,0.3,0.1,0.5,0.4,0.6c0.1,0.1,0.3,0.1,0.5,0c0.5-0.1,0.9-0.6,1.2-1.1    c0.3-0.6,0.6-1.4,0.6-2.1c0-0.2,0-0.5-0.1-0.7c-0.3-0.5-1-0.5-1.5-0.2"/>
		<g>
			<path class="st2" d="M246.3,152.3c-1,0.9-1.5,2.2-1.4,3.6c0.2,1.4,1.4,1.9,2.4,0.9c1-0.8,1.6-2.6,1.5-3.8     c-0.2-1.3-1.5-1.4-2.5-0.9c-0.7,0.4-0.1,1.5,0.6,1.1c0.9-0.5,0.6,0.8,0.4,1.2c-0.1,0.5-0.5,1.5-1,1.6c-0.3,0.1-0.2-0.1-0.3-0.4     c0-0.3,0-0.5,0.1-0.8c0.1-0.6,0.5-1.1,0.9-1.5C247.8,152.6,246.9,151.7,246.3,152.3L246.3,152.3z"/>
		</g>
	</g>
	<g>
		<path class="st5" d="M249.1,144.7c-0.3,0.5-0.5,1.1-0.7,1.7c-0.2,0.6-0.2,1.5,0.3,1.8c0.4,0.3,1,0.1,1.4-0.2    c0.6-0.6,0.7-1.5,0.7-2.3c0-0.3,0-0.7-0.2-1s-0.5-0.5-0.9-0.4s-0.6,0.4-0.6,0.8"/>
		<g>
			<path class="st2" d="M248.6,144.4c-0.5,1.1-1.4,2.7-0.6,3.9c0.8,1.1,2.4,0.6,3-0.4c0.6-0.9,0.9-2.8,0.2-3.7     c-0.8-1.1-2.5-0.5-2.5,0.8c0,0.8,1.2,0.8,1.2,0c0.2-0.2,0.3-0.1,0.3,0.2c0.1,0.2,0.1,0.3,0.1,0.5s0,0.5-0.1,0.8     c-0.1,0.4-0.2,1-0.6,1.2c-1.3,0.6-0.1-2.2,0.1-2.6C250,144.3,249,143.7,248.6,144.4L248.6,144.4z"/>
		</g>
	</g>
	<g>
		<path class="st5" d="M250.6,137.7c-0.3,0.9-0.6,1.9-0.3,2.8c0.1,0.3,0.3,0.6,0.6,0.7c0.4,0.1,0.7-0.2,1-0.5    c0.6-0.8,0.7-1.8,0.5-2.7c-0.1-0.3-0.3-0.7-0.6-0.8c-0.5-0.1-0.9,0.3-1.2,0.7"/>
		<g>
			<path class="st2" d="M250,137.6c-0.4,1.1-0.8,2.8,0.1,3.8c0.9,1,2.1,0.1,2.6-0.9s0.6-2.5-0.1-3.4     C251.7,136,250.6,136.8,250,137.6c-0.5,0.6,0.6,1.3,1.1,0.6c0.1-0.2,0.3-0.5,0.5-0.3c0.1,0.1,0.2,0.7,0.2,0.8     c0,0.5-0.1,1-0.3,1.4c0,0.1-0.3,0.6-0.5,0.5s-0.2-0.8-0.2-0.9c0-0.6,0.2-1.2,0.4-1.8C251.5,137.2,250.2,136.8,250,137.6     L250,137.6z"/>
		</g>
	</g>
	<g>
		<path class="st5" d="M250.9,129.8c-0.3,0.9-0.5,1.9-0.5,2.9c0,0.3,0,0.7,0.1,1s0.4,0.6,0.7,0.6c0.2,0,0.5,0,0.7-0.1    c0.6-0.3,0.9-1,0.9-1.7s-0.3-1.3-0.6-1.9c-0.1-0.3-0.3-0.5-0.5-0.7s-0.6-0.2-0.8,0"/>
		<g>
			<path class="st2" d="M250.3,129.6c-0.4,1.3-1,3.4-0.2,4.6c0.6,1,1.9,0.9,2.6,0.1c1.4-1.5,0.2-6-2.2-4.9c-0.7,0.3-0.1,1.4,0.6,1.1     c0.5-0.2,1.6,2.6,0.6,3c-0.2,0.2-0.3,0.2-0.4-0.2c-0.3-0.1-0.4-0.3-0.3-0.6c-0.1-0.3,0-0.6,0.1-0.9c0.1-0.6,0.2-1.2,0.4-1.9     C251.7,129.2,250.5,128.9,250.3,129.6L250.3,129.6z"/>
		</g>
	</g>
	<g>
		<path class="st5" d="M251.7,124c-0.5,0.1-0.8,0.7-0.9,1.2c-0.1,0.4-0.1,0.8,0,1.2c0.1,0.5,0.3,1,0.8,1.1c0.3,0,0.6-0.2,0.8-0.4    c0.4-0.4,0.6-1,0.6-1.6s-0.3-1.1-0.5-1.7c-0.1-0.1-0.1-0.3-0.3-0.3c-0.1,0-0.3,0.1-0.3,0.2"/>
		<g>
			<path class="st2" d="M251.6,123.4c-1.3,0.4-1.5,2-1.3,3.2s1.3,2.1,2.4,1.2c1.2-0.9,1.1-2.4,0.6-3.7c-0.2-0.5-0.4-1.1-1-1.2     c-0.5-0.1-1,0.3-1,0.9c0,0.8,1.3,0.8,1.2,0v-0.1c-0.1,0.1-0.1,0.3-0.2,0.4l0.1-0.1c-0.1,0.1-0.3,0.1-0.4,0.2     c-0.2-0.2-0.2-0.2-0.1,0c0.1,0.1,0.1,0.2,0.1,0.3c0.1,0.2,0.2,0.4,0.2,0.6c0.1,0.5,0.2,1.2-0.2,1.6c-0.5,0.5-0.6-0.2-0.6-0.6     s0-1.2,0.5-1.4C252.7,124.3,252.3,123.1,251.6,123.4L251.6,123.4z"/>
		</g>
	</g>
	<g>
		<path class="st5" d="M250.8,118.2c-0.3,0.5-0.5,1-0.5,1.6s0.5,1.2,1.1,1.1c0.5,0,0.8-0.5,0.9-1c0.1-0.5-0.1-1-0.3-1.4    c-0.1-0.3-0.3-0.6-0.5-0.7C251.2,117.7,250.8,117.8,250.8,118.2"/>
		<g>
			<path class="st2" d="M250.3,117.9c-0.5,1-1,2.2-0.1,3.1c0.7,0.8,1.9,0.7,2.5-0.2c0.6-0.9,0.2-2.2-0.4-3.1     c-0.6-0.8-1.8-0.8-2.1,0.2c-0.3,0.8,1,1.1,1.2,0.3c-0.1,0-0.2,0.1-0.1,0.2c0,0.1,0.1,0.1,0.1,0.2c0.1,0.2,0.1,0.3,0.2,0.5     c0.1,0.3,0.2,0.8-0.1,1s-0.5-0.1-0.5-0.4c-0.1-0.4,0.2-0.9,0.4-1.3C251.8,117.8,250.7,117.2,250.3,117.9L250.3,117.9z"/>
		</g>
	</g>
	<g>
		<path class="st5" d="M250.8,160c0.1,0.5,0.4,1,0.7,1.5c0.2,0.3,0.6,0.6,1,0.7c0.4,0.1,0.9-0.1,1-0.5c0.1-0.2,0-0.4,0-0.6    c-0.2-0.8-0.8-1.5-1.5-2c-0.3-0.2-0.6-0.3-0.9-0.2s-0.4,0.6-0.2,0.8"/>
		<g>
			<path class="st2" d="M250.2,160.2c0.3,1.1,1,2.4,2.2,2.6c0.5,0.1,1.1-0.1,1.4-0.5c0.4-0.5,0.3-1.1,0.1-1.6     c-0.4-1-1.3-2.2-2.4-2.4c-1-0.2-2,1-1.1,1.8c0.6,0.6,1.5-0.3,0.9-0.9c0,0.2,0.1,0.4,0.3,0.4c0.1,0,0.1,0.1,0.2,0.1     c0.2,0.1,0.3,0.3,0.5,0.4c0.2,0.3,0.6,0.8,0.6,1.2c-0.1,0.5-0.7,0-0.8-0.2c-0.3-0.4-0.5-0.8-0.6-1.2     C251.3,159.1,250.1,159.4,250.2,160.2L250.2,160.2z"/>
		</g>
	</g>
	<g>
		<path class="st5" d="M254.4,164.8c-0.1,0.7-0.2,1.4-0.1,2c0.1,0.7,0.5,1.3,1.1,1.6c0.2,0.1,0.5,0.2,0.7,0c0.1-0.1,0.2-0.2,0.2-0.3    c0.4-1,0.4-2.1-0.1-3c-0.2-0.4-0.5-0.7-0.9-0.9s-0.9-0.1-1.1,0.3"/>
		<g>
			<path class="st2" d="M253.8,164.7c-0.2,1.3-0.3,2.6,0.5,3.7c0.7,0.9,2,1.3,2.6,0.1c0.5-1.2,0.4-2.8-0.3-3.9     c-0.6-0.9-2-1.4-2.8-0.4c-0.5,0.6,0.4,1.5,0.9,0.9c0.5-0.7,1.1,0.6,1.2,1c0.1,0.3,0.3,1.5,0,1.8c-0.4,0.4-0.8-0.5-0.9-0.8     c-0.2-0.6-0.1-1.3,0-1.9C255.2,164.2,254,163.9,253.8,164.7L253.8,164.7z"/>
		</g>
	</g>
	<g>
		<path class="st5" d="M257,172.7c-0.2,0.9-0.3,1.8-0.3,2.7c0,0.5,0,1.1,0.4,1.5c0.1,0.1,0.3,0.2,0.4,0.3c0.4,0.1,0.7-0.1,1-0.4    c0.2-0.3,0.3-0.7,0.3-1c0.1-0.6,0-1.3-0.2-1.9s-0.7-1.1-1.3-1.3c-0.1,0.1-0.1,0.2-0.2,0.4"/>
		<g>
			<path class="st2" d="M256.4,172.6c-0.3,1.2-0.6,2.8-0.2,4.1c0.3,1,1.3,1.5,2.3,1c1-0.6,1.1-2,0.9-3c-0.2-1.2-0.8-2.2-2-2.7     c-0.2-0.1-0.6,0.1-0.7,0.3c-0.1,0.1-0.1,0.2-0.2,0.4c-0.3,0.7,0.8,1.4,1.1,0.6c0.1-0.1,0.1-0.2,0.2-0.4c-0.2,0.1-0.5,0.2-0.7,0.3     c0.6,0.2,0.9,0.8,1.1,1.5c0.1,0.3,0,0.7,0,1c0,0.2-0.1,1.2-0.7,0.8c-0.3-0.2-0.2-1.2-0.1-1.5c0-0.7,0.1-1.4,0.3-2     C257.8,172.1,256.6,171.8,256.4,172.6L256.4,172.6z"/>
		</g>
	</g>
	<g>
		<path class="st5" d="M258.6,181.3c-0.1,0.6-0.2,1.3-0.3,1.9c0,0.6,0,1.2,0.3,1.7c0.1,0.2,0.3,0.4,0.6,0.4c0.2,0,0.4-0.1,0.5-0.2    c0.5-0.4,0.8-1,0.8-1.6s-0.2-1.2-0.6-1.7c-0.2-0.3-0.4-0.5-0.8-0.6c-0.3-0.1-0.7,0.1-0.8,0.4"/>
		<g>
			<path class="st2" d="M258,181.1c-0.2,1.2-0.6,2.9,0.1,4.1c0.7,1.2,2,0.7,2.7-0.3c0.7-1.1,0.5-2.5-0.3-3.5c-0.7-1-2.1-1.2-2.6,0.1     c-0.3,0.7,0.9,1.1,1.2,0.3c0.1-0.1,0.6,0.7,0.6,0.8c0.1,0.3,0.2,0.5,0.2,0.8s-0.2,1.4-0.7,1.2c-0.6-0.2,0-2.7,0.1-3.1     C259.4,180.6,258.2,180.3,258,181.1L258,181.1z"/>
		</g>
	</g>
	<g>
		<path class="st5" d="M259.3,189.2c-0.5,0.6-0.9,1.3-1.1,2c-0.1,0.8,0.1,1.6,0.6,2.2c0.1,0.1,0.2,0.2,0.3,0.2    c0.3,0.1,0.6,0,0.8-0.2c0.5-0.4,0.9-1,1-1.7s-0.1-1.3-0.3-1.9c-0.1-0.2-0.2-0.3-0.3-0.5c-0.3-0.2-0.8-0.1-0.9,0.2"/>
		<g>
			<path class="st2" d="M258.9,188.7c-1,1.1-1.6,2.5-1.1,3.9c0.4,1.2,1.4,2.1,2.6,1.3c1.1-0.8,1.4-2.3,1.1-3.6     c-0.1-0.6-0.4-1.3-1-1.6c-0.5-0.2-1.1-0.1-1.5,0.4c-0.5,0.6,0.4,1.5,0.9,0.9c0.2-0.2,0.4,0.8,0.4,0.8c0.1,0.3,0.1,0.6,0,0.9     c-0.1,0.4-0.4,1.5-1,1.3c-0.4-0.1-0.4-1.2-0.4-1.5c0.1-0.7,0.4-1.3,0.9-1.8C260.3,189,259.4,188.1,258.9,188.7L258.9,188.7z"/>
		</g>
	</g>
	<g>
		<path class="st5" d="M257.8,197.7c0-0.1-0.2,0-0.2,0c-0.6,0.6-0.9,1.5-1.1,2.4c-0.1,0.5-0.1,1,0.2,1.4c0.4,0.4,1,0.3,1.4,0    s0.6-0.8,0.7-1.3c0.3-1,0.4-2,0.3-3c0-0.3-0.1-0.6-0.4-0.6c-0.1,0-0.2,0.1-0.3,0.1c-0.4,0.3-0.7,0.8-0.9,1.3"/>
		<g>
			<path class="st2" d="M257.9,197.1c-1.3-0.5-2,2.4-2.1,3.2c-0.1,1.5,1.3,2.7,2.6,1.6c0.7-0.5,0.9-1.4,1.1-2.2     c0.2-0.9,0.4-2.1,0.1-3c-0.6-1.9-2.3,0-2.7,0.9c-0.3,0.7,0.7,1.4,1.1,0.6c0.1-0.3,0.5-0.6,0.6-1c-0.1-0.3-0.2-0.3-0.1,0     c0,0.2,0,0.4,0,0.6c0,0.7-0.1,1.5-0.3,2.2c-0.1,0.2-0.3,1-0.7,1c-0.6,0-0.4-0.8-0.3-1.1c0-0.2,0.6-1.6,0.5-1.7     C258.3,198.6,258.7,197.3,257.9,197.1L257.9,197.1z"/>
		</g>
	</g>
	<g>
		<path class="st5" d="M255.7,205.3c-1.2,0.7-1.9,2.1-1.7,3.5c0,0.1,0.1,0.3,0.2,0.4c0.1,0.2,0.4,0.2,0.6,0.2    c0.7-0.1,1.2-0.8,1.5-1.5c0.2-0.5,0.4-0.9,0.5-1.4c0.1-0.3,0.1-0.6,0-0.9c-0.1-0.3-0.4-0.5-0.7-0.4"/>
		<g>
			<path class="st2" d="M255.3,204.7c-1,0.6-1.8,1.7-2,2.9c-0.2,1.1,0.1,2.5,1.5,2.3c2-0.2,4.1-5.6,1.3-5.5c-0.8,0-0.8,1.3,0,1.2     c0.6,0-1.1,4-1.5,2.7c-0.3-1,0.7-2.1,1.4-2.6C256.7,205.4,256,204.3,255.3,204.7L255.3,204.7z"/>
		</g>
	</g>
	<g>
		<path class="st5" d="M251.4,213.3c-1,0.5-1.9,1.4-2.3,2.4c-0.1,0.2-0.2,0.5-0.2,0.8s0.2,0.5,0.4,0.6c0.3,0.1,0.6,0,0.8-0.1    c0.9-0.4,1.7-0.9,2.3-1.6c0.2-0.2,0.4-0.4,0.4-0.7c0.1-0.3,0-0.7-0.1-1c-0.2-0.4-0.4-0.7-0.8-0.8s-0.9,0.1-0.9,0.4"/>
		<g>
			<path class="st2" d="M251.1,212.8c-1.3,0.6-2.6,2-2.7,3.5c0,0.6,0.2,1.3,0.9,1.5c0.7,0.3,1.6-0.2,2.2-0.6c1.3-0.8,2.7-2,2-3.6     c-0.5-1.2-2.3-1.9-2.9-0.3c-0.3,0.8,0.9,1.1,1.2,0.3c0.1-0.2,0.7,0.8,0.6,1c0,0.3-0.4,0.7-0.7,0.9c-0.5,0.4-1,0.8-1.6,1     c-1,0.4,0-1.2,0.2-1.5c0.4-0.5,0.9-0.8,1.4-1.1C252.4,213.5,251.8,212.4,251.1,212.8L251.1,212.8z"/>
		</g>
	</g>
	<g>
		<path class="st5" d="M246.3,220.1c-0.6,0.5-1.2,1-1.7,1.7c-0.3,0.3-0.5,0.8-0.3,1.1c0.1,0.2,0.4,0.3,0.6,0.3    c0.3,0,0.5-0.1,0.7-0.2c0.6-0.2,1.1-0.6,1.5-1.1s0.5-1.2,0.2-1.8c-0.1-0.1-0.1-0.2-0.3-0.3c-0.3-0.2-0.7,0.1-1,0.4"/>
		<g>
			<path class="st2" d="M245.9,219.7c-0.8,0.7-2.4,1.9-2.2,3.1c0.2,1.5,1.9,1,2.8,0.6c1-0.5,1.9-1.6,1.7-2.8c-0.1-0.5-0.3-1-0.8-1.2     c-0.6-0.2-1.2,0.1-1.6,0.5c-0.6,0.6,0.3,1.4,0.9,0.9c0.3-0.3,0.3-0.2,0.3,0.2c0,0.2-0.1,0.4-0.2,0.6c-0.3,0.5-0.8,0.8-1.3,1     c-0.2,0.1-0.5,0.3-0.5,0c0-0.2,0.4-0.6,0.5-0.7c0.4-0.4,0.8-0.8,1.3-1.2C247.4,220.1,246.5,219.2,245.9,219.7L245.9,219.7z"/>
		</g>
	</g>
	<g>
		<path class="st5" d="M241.4,225.1c-0.5,0.2-0.9,0.4-1.4,0.7c-1,0.6-2,1.7-2,2.9c0,0.1,0,0.2,0.1,0.3s0.3,0.2,0.5,0.1    c1.6-0.2,3.1-1.5,3.3-3.1c0-0.2,0.1-0.4-0.1-0.6c-0.1-0.2-0.4-0.2-0.5-0.1"/>
		<g>
			<path class="st2" d="M241.1,224.6c-1.4,0.6-2.8,1.5-3.4,2.9c-0.2,0.5-0.4,1.3-0.1,1.8c0.4,0.6,1.1,0.5,1.6,0.3     c1.3-0.3,2.5-1.3,3-2.6c0.3-0.6,0.5-1.4,0.2-2C242.1,224.5,241.4,224.3,241.1,224.6c-0.7,0.5-0.1,1.6,0.5,1.1     c-0.1,0-0.2,0-0.3-0.1c0,0.1,0,0.3-0.1,0.4c0,0.2-0.1,0.3-0.2,0.4c-0.2,0.4-0.4,0.7-0.7,1s-1.5,1.2-2,0.9     c0.1,0.1,0.2,0.2,0.3,0.4c-0.3-0.7,0.5-1.5,1-1.9c0.6-0.5,1.3-0.9,2.1-1.2C242.4,225.3,241.8,224.3,241.1,224.6L241.1,224.6z"/>
		</g>
	</g>
	<g>
		<path class="st5" d="M234.1,231.4c-0.7,0.5-1.4,1-1.9,1.6c-0.1,0.1-0.2,0.2-0.2,0.3c0,0.2,0.1,0.4,0.3,0.4s0.4,0.1,0.6,0.1    c0.6,0,1.1-0.1,1.6-0.4c0.5-0.3,0.9-0.7,1-1.3c0-0.3-0.1-0.6-0.3-0.8s-0.6-0.2-0.8,0.1"/>
		<g>
			<path class="st2" d="M233.7,230.8c-0.6,0.4-1.1,0.8-1.6,1.2c-0.4,0.4-0.8,0.8-0.8,1.3c0,1.4,2.1,1.1,2.9,0.8     c1-0.4,1.9-1.3,1.7-2.4c-0.2-1-1.4-1.6-2.2-0.8c-0.6,0.6,0.3,1.5,0.9,0.9c0,0,0,0.4,0,0.5c-0.1,0.2-0.2,0.3-0.4,0.5     c-0.2,0.1-0.4,0.2-0.7,0.3c-0.2,0.1-0.6,0-0.8,0.1c-0.1,0-0.1,0-0.2,0c-0.1,0.3,0,0.4,0.1,0.1c0.2-0.1,0.3-0.3,0.5-0.5     c0.4-0.3,0.7-0.6,1.2-0.9C235,231.5,234.4,230.4,233.7,230.8L233.7,230.8z"/>
		</g>
	</g>
	<g>
		<path class="st5" d="M227.8,234.3c-0.6,0.2-1.1,0.6-1.5,1c-0.1,0.2-0.3,0.3-0.3,0.5c-0.2,0.6,0.5,1.2,1.1,1.3    c0.6,0,1.2-0.4,1.7-0.8c0.4-0.3,0.7-0.7,0.9-1.1c0.1-0.2,0.3-0.5,0.1-0.7c-0.1-0.2-0.3-0.3-0.5-0.3    C228.9,234,228.3,234.1,227.8,234.3"/>
		<g>
			<path class="st2" d="M227.5,233.8c-1,0.4-2.4,1.4-2.1,2.7c0.3,1.2,1.7,1.5,2.7,1.1c0.9-0.4,2.3-1.7,2.4-2.8     c0.1-1.5-1.9-1.4-2.9-1.1c-0.8,0.2-0.4,1.5,0.3,1.2c0.3-0.1,0.6-0.2,0.9-0.1c0.5,0,0.4,0.1,0.2,0.4c-0.3,0.4-0.7,0.9-1.1,1.2     c-0.5,0.3-1.6,0.4-1.1-0.5c0.2-0.4,0.9-0.7,1.3-0.9C228.9,234.5,228.2,233.4,227.5,233.8L227.5,233.8z"/>
		</g>
	</g>
	<g>
		<path class="st5" d="M222.2,236.6c-0.5,0.2-0.9,0.5-1.2,0.9s-0.5,0.9-0.2,1.3c0.2,0.2,0.4,0.2,0.7,0.3c0.9,0.1,1.7-0.1,2.5-0.6    c0.2-0.1,0.4-0.3,0.5-0.5s0-0.5-0.1-0.7c-0.4-0.6-1.2-0.9-1.9-0.7"/>
		<g>
			<path class="st2" d="M222,236c-1,0.4-2.3,1.3-2,2.6s2,1.2,3,0.9s2.3-1,2-2.2s-1.7-1.7-2.8-1.4c-0.8,0.2-0.4,1.4,0.3,1.2     c0.4-0.1,1.1-0.1,1.2,0.4c0.2,0.5-0.7,0.7-1.1,0.8c-0.3,0.1-1.3,0.3-1.4-0.1c-0.1-0.4,0.9-0.9,1.1-1     C223.1,236.9,222.7,235.7,222,236L222,236z"/>
		</g>
	</g>
	<g>
		<path class="st5" d="M216.9,238.9c-0.8-0.1-1.6,0-2.2,0.4c-0.2,0.1-0.4,0.3-0.5,0.5s-0.1,0.5,0.1,0.7c0.1,0.1,0.2,0.1,0.3,0.1    c0.9,0.2,1.9,0.1,2.8-0.2c0.3-0.1,0.6-0.3,0.8-0.6s0.1-0.7-0.1-0.9c-0.3-0.2-0.7,0-1-0.2"/>
		<g>
			<path class="st2" d="M217.1,238.3c-1.1-0.2-2.6,0-3.3,1c-0.3,0.4-0.4,1-0.1,1.4c0.3,0.5,0.9,0.6,1.4,0.6c1.1,0.1,3,0,3.7-1.1     c0.3-0.4,0.3-0.9,0.1-1.4c-0.4-0.7-0.9-0.4-1.4-0.7c-0.7-0.4-1.3,0.7-0.6,1.1c0.2,0.1,0.9,0.2,0.9,0.3c0.1,0.3-1.5,0.6-1.7,0.6     s-0.5,0-0.7,0c-0.4,0-0.7,0-0.3-0.3c0.4-0.4,1.2-0.4,1.7-0.3C217.5,239.6,217.9,238.4,217.1,238.3L217.1,238.3z"/>
		</g>
	</g>
</g>
<g id="bubbles">
	<g class="st6">
		<g>
			<path class="st7" d="M224.8,67.5c-1.7,1.8-2.2,4.9-0.1,6.7c2,1.6,5.1,1.1,6.6-0.9c1.3-1.8,1.4-5.4-0.7-6.7     C228.8,65.4,226.3,66.1,224.8,67.5c-1.2,1.1,0.6,2.8,1.8,1.8c0.7-0.6,2-1.2,2.9-0.5c-0.3-0.2,0.2,0.8,0.3,1     c0.1,0.6,0.1,1.3-0.2,1.8c-0.5,1-2,1.5-3,0.8c-1.2-0.7-0.7-2.3,0.1-3.1C227.7,68.1,225.9,66.3,224.8,67.5z"/>
		</g>
	</g>
	<g class="st6">
		<g>
			<path class="st7" d="M233.6,48.2c-1.3,2.6-1.5,6.4,1.4,8c2.5,1.4,6,0.3,7.4-2.2c1.4-2.6,0-6.1-2.7-7.3     C237.6,45.9,234.8,46.3,233.6,48.2c-0.9,1.3,1.3,2.6,2.2,1.3c0.5-0.7,1.8-0.8,2.6-0.6c1.5,0.4,2.5,2.5,1.9,3.9     c-0.6,1.3-2.5,2-3.8,1.4c-1.8-0.8-1.4-3.3-0.6-4.7C236.5,48.1,234.3,46.8,233.6,48.2z"/>
		</g>
	</g>
	<g class="st6">
		<g>
			<path class="st7" d="M217.7,14.7c-2.7,1.4-2.6,5-1.3,7.3c1.5,2.8,5.1,3.5,7.8,1.9c2.9-1.7,3.3-5.4,1.1-7.9     c-0.5-0.6-1.2-1.1-1.9-1.4c-0.3-0.1-0.7-0.3-1-0.3c-0.2,0-0.5-0.1-0.7-0.1c-0.4-0.1-0.5-0.1-0.3,0.1c0.3,0-0.3-0.1-0.3-0.1     c-0.2-0.1-0.4-0.1-0.6-0.1c-0.8-0.1-1.6,0.2-2.4,0.5c-1.5,0.6-0.8,3,0.7,2.4c0.5-0.2,1.4-0.4,1.6-0.4c0.8,0.1,1.8,0.1,2.5,0.6     c1.6,1.1,2,3.4,0.3,4.6c-1.4,1-3.4,0.8-4.3-0.7c-0.8-1.2-1.2-3.4,0.3-4.2C220.4,16.1,219.2,13.9,217.7,14.7z"/>
		</g>
	</g>
	<g class="st6">
		<g>
			<path class="st7" d="M254.7,71.3c-1.1,2.9-1,6.8,2.2,8.3c2.9,1.3,6.6-0.3,7.7-3.3c1-2.9-0.8-6.4-3.8-7.3c-2.2-0.6-4.9-0.2-6,2     c-0.7,1.4,1.4,2.7,2.2,1.3c1.4-2.9,6,0.3,5.3,3c-0.5,1.8-3,2.9-4.6,1.9c-1.8-1.1-1.2-3.6-0.6-5.2     C257.6,70.5,255.2,69.8,254.7,71.3z"/>
		</g>
	</g>
	<g class="st6">
		<g>
			<path class="st7" d="M71.4,104.6c0.3,2.3-2.1,4.4-4.4,4.1c-2.1-0.3-2.9-3.1-2-4.8c0.6-1.1,1.5-1,2.6-1c1.6,0,3.3,0.3,3.7,2.1     c0.4,1.6,2.8,0.9,2.4-0.7c-0.7-3-3.7-4-6.5-3.9c-2.5,0.1-4.4,1.1-5,3.8c-0.7,3.2,1.3,6.8,4.7,7c3.5,0.3,7.3-2.9,6.8-6.6     C73.7,103.1,71.2,103,71.4,104.6z"/>
		</g>
	</g>
	<g class="st6">
		<g>
			<path class="st7" d="M214.9,97.5c2.5,2.3,6.8,3.4,8.1-0.7c1.1-3.3,0.4-8.3-3.5-9.3c-2.2-0.6-4,0.9-5.3,2.5     C212.3,92.5,212.7,95.3,214.9,97.5c1.1,1.2,2.9-0.6,1.8-1.8c-1.2-1.2-1.7-2.5-0.6-4c0.4-0.6,1.2-1.5,1.9-1.8c2.2-0.9,3,2.3,3,3.8     c0,0.9,0,2.5-0.8,3.1c-1.1,0.9-2.7-0.4-3.5-1.1C215.5,94.7,213.7,96.5,214.9,97.5z"/>
		</g>
	</g>
	<g class="st6">
		<g>
			<path class="st7" d="M43.2,51c1.1,1.1-0.5,3.1-1.5,3.6c-1.5,0.8-3.4-0.7-3.1-2.4c0.1-0.4,0.3-0.7,0.5-1.1c0.1-0.1-0.2,0.3,0,0.1     c0.2-0.3,0.3-0.6,0.5-0.8C40.7,49.2,42.2,50.1,43.2,51c1.2,1,3-0.7,1.8-1.8c-2.1-1.7-4.9-2.9-7.1-0.7c-1.3,1.4-2.2,3.4-1.6,5.3     c0.9,3,4.3,4.4,7,2.7c2.3-1.5,4-5.1,1.7-7.3C43.8,48.1,42.1,49.9,43.2,51z"/>
		</g>
	</g>
	<g class="st6">
		<g>
			<path class="st7" d="M77.1,22.1c0.1,2.4-2.9,3.7-4.9,3.1c-0.8-0.2-1.6-0.7-1.7-1.7c0-0.7,0.5-1.4,0.9-1.9c0,0,0.9-1,0.6-0.8     c1.7-0.9,4.7-0.2,5.1,1.7c0.3,1.6,2.7,0.9,2.4-0.7C78.9,19,76.4,18,73.8,18c-2.5,0.1-4.3,1.1-5.4,3.5c-1.4,3.1,0.9,5.8,4,6.2     c3.3,0.4,7.3-2,7.1-5.7C79.5,20.5,77,20.4,77.1,22.1z"/>
		</g>
	</g>
	<g class="st6">
		<g>
			<path class="st7" d="M245.2,90.9c1.8-0.1,3.9,1.1,3.9,3.1c0,1.6-1.5,2.6-3,2.8c-1.6,0.2-3.5-0.8-3.6-2.5c-0.1-1.8,1.5-3,3-3.4     c1.6-0.3,0.9-2.7-0.7-2.4c-2.8,0.6-5.2,3.2-4.8,6.1c0.4,3.1,3.5,5,6.4,4.6c2.8-0.3,5.3-2.5,5.2-5.5c-0.1-3.2-3.3-5.6-6.4-5.4     C243.6,88.5,243.6,91,245.2,90.9z"/>
		</g>
	</g>
	<g class="st6">
		<g>
			<path class="st7" d="M290.5,63.6c-1.6,2.3-5.4,1.2-6.2-1.2c-0.8-2.3,0.4-4.5,2.2-6c0.6-0.5,1.4-1.1,2.3-1.2     c1.7-0.2,2.9,1.5,3.4,3c0.5,1.8-0.2,3.8-1.4,5.2c-1.1,1.2,0.7,2.9,1.8,1.8c2.4-2.5,3.1-6.4,1.3-9.4c-2.3-3.7-6.1-3.7-9.2-1     c-2.8,2.5-4.2,7-1.7,10.3c2.4,3.1,7.5,3.1,9.7-0.2C293.6,63.6,291.4,62.3,290.5,63.6z"/>
		</g>
	</g>
	<g class="st6">
		<g>
			<path class="st7" d="M45.7,147.2c0.6,1.9-1.7,3.8-3.5,3.5c-1.6-0.3-2.5-2.5-1.7-3.9c0.4-0.7,1.2-1,2-1.2c1.7-0.5,2.7,0.3,3.4,1.9     c0.6,1.5,2.8,0.2,2.2-1.3c-1.1-2.7-3.6-3.9-6.4-3c-2,0.7-3.6,2-3.8,4.3c-0.3,3,2,5.9,5.1,5.7c3.2-0.2,6.3-3.4,5.3-6.6     C47.7,145,45.2,145.6,45.7,147.2z"/>
		</g>
	</g>
	<g class="st6">
		<g>
			<path class="st7" d="M19.7,105c0.8,1.9-2.7,3.6-4.1,3.3c-2-0.4-2.9-3.1-2-4.8c0.4-0.8,1-1.1,1.9-1.4     C17.6,101.4,18.9,103.4,19.7,105c0.8,1.4,2.9,0.2,2.2-1.3c-1.5-2.8-4.1-5.2-7.4-4c-2.1,0.8-3.7,2.6-3.7,5c-0.1,3.4,2.5,6.4,6.1,6     c3.3-0.4,6.5-3.6,5.1-7C21.3,102.3,19.1,103.5,19.7,105z"/>
		</g>
	</g>
	<g class="st6">
		<g>
			<path class="st7" d="M51.5,84.1c3.9,0.8,8.1-2.4,7.7-6.6c-0.3-3.5-4.4-6-7.7-4.9c-2,0.7-3.3,3-3.9,4.9     C46.5,80.9,48.3,83.3,51.5,84.1c1.6,0.4,2.2-2,0.7-2.4c-1.9-0.5-2.8-1.5-2.1-3.5c0.3-0.9,1-2.2,1.6-2.8c1.4-1.3,3.9-0.2,4.7,1.3     c1.4,2.6-1.7,5.5-4.3,5C50.6,81.4,49.9,83.8,51.5,84.1z"/>
		</g>
	</g>
</g>
</svg>